<svg width="1366" height="1483" viewBox="0 0 1366 1483" fill="none" xmlns="http://www.w3.org/2000/svg">
<path d="M679.304 1075.97C692.418 1075.97 759.435 1169.36 759.436 1213.26C759.436 1257.16 723.559 1234.94 679.304 1234.94C635.049 1234.94 599.173 1257.16 599.172 1213.26C599.173 1169.36 666.192 1075.97 679.304 1075.97Z" fill="#49586B"/>
<path d="M385.487 936.421C385.487 971.777 414.14 1000.44 449.484 1000.44C484.828 1000.44 513.48 971.777 513.481 936.421V802.721H641.692V936.421C641.691 1042.61 555.637 1128.69 449.484 1128.69C343.331 1128.69 257.276 1042.61 257.276 936.421V732.896H385.487V936.421Z" fill="#49586B"/>
<path fill-rule="evenodd" clip-rule="evenodd" d="M680.373 50C694.385 50.0002 705.236 56.5777 712.242 62.46C719.375 68.4497 725.289 75.9885 730.188 83.4072C740.034 98.3175 749.261 118.141 757.829 139.924C775.123 183.891 792.123 242.087 807.023 300.838C813.853 327.769 820.291 355.032 826.168 381.395C878.586 394.113 927.931 413.567 972.981 438.672C991.742 374.582 1054.33 270.731 1197.43 173.839C1223.37 156.272 1260.63 163.675 1275.71 193.684L1276.41 195.131C1302.37 250.664 1324.25 332.972 1312.95 420.444C1302.73 499.6 1265.45 581.509 1182.75 649.684C1216.84 714.394 1235.91 786.757 1235.91 863.128C1235.91 896.467 1232.28 929.043 1225.34 960.552C1225.1 961.683 1225.31 962.868 1225.94 963.842C1246 994.921 1257.32 1030.12 1257.32 1067.42C1257.32 1176.58 1160.4 1267.81 1030.97 1290.14C1025.74 1291.04 1021.83 1295.53 1021.83 1300.84V1325.48L1021.82 1326.87C1021.08 1385.61 973.446 1433 914.792 1433H437.389C378.735 1433 331.1 1385.61 330.359 1326.87L330.348 1325.48V1299.26C330.348 1294.21 326.812 1289.89 321.947 1288.71L321.471 1288.61C196.22 1263.88 103.422 1174.23 103.422 1067.42C103.423 1029.16 115.334 993.099 136.376 961.437C136.943 960.583 137.194 959.561 137.083 958.552L137.011 958.122C130.629 928.331 127.191 897.595 126.982 866.172L126.972 863.128C126.972 786.051 146.398 713.056 181.084 647.892C99.8935 580.077 63.1768 498.906 53.0464 420.444C41.7529 332.972 63.6284 250.664 89.5894 195.131L90.2905 193.684C105.368 163.676 142.629 156.271 168.574 173.839C310.57 269.99 373.286 372.996 392.572 437.196C436.248 413.163 483.908 394.418 534.453 381.945C540.363 355.412 546.845 327.956 553.722 300.838C568.622 242.087 585.621 183.891 602.916 139.924C611.484 118.141 620.711 98.3175 630.557 83.4072C635.456 75.9885 641.37 68.4496 648.503 62.46C655.509 56.5777 666.36 50 680.373 50ZM840.983 451.723C842.192 457.835 843.353 463.81 844.461 469.627C849.149 494.235 852.939 516.177 855.571 533.779C858.087 550.607 859.868 565.485 859.868 574.776C859.868 615.602 834.257 648.171 802.001 668.979C769.414 690.001 726.323 701.955 680.373 701.955C634.422 701.955 591.33 690.001 558.743 668.979C526.487 648.171 500.877 615.602 500.876 574.776C500.877 565.485 502.657 550.607 505.173 533.779C507.806 516.177 511.596 494.235 516.284 469.627C517.349 464.032 518.465 458.292 519.625 452.423C325.401 512.453 191.078 677.376 191.078 863.128C191.078 891.049 194.042 918.303 199.694 944.683C203.596 962.895 199.881 981.715 189.762 996.94C175.071 1019.05 167.528 1042.9 167.528 1067.42C167.528 1133.46 227.466 1204.69 333.881 1225.69C367.956 1232.42 394.453 1262.34 394.454 1299.26V1325.48C394.454 1349.7 413.929 1368.87 437.389 1368.87H490.193V1321.85C490.193 1308.86 500.716 1298.33 513.698 1298.33H530.793C543.774 1298.33 554.298 1308.86 554.298 1321.85V1368.87H648.32V1321.85C648.32 1308.86 658.843 1298.33 671.825 1298.33H688.919C701.9 1298.33 712.425 1308.86 712.425 1321.85V1368.87H806.447V1321.85C806.447 1308.86 816.97 1298.33 829.952 1298.33H847.046C860.027 1298.33 870.552 1308.86 870.552 1321.85V1368.87H914.792C938.252 1368.87 957.727 1349.7 957.727 1325.48V1300.84C957.727 1263.21 985.21 1232.96 1020.08 1226.95L1022.65 1226.49C1049.27 1221.66 1073.06 1213.68 1093.83 1203.39L919.832 1029.33L827.316 1131.83L732.156 1045.88L829.054 938.524L698.42 807.848L789.079 717.158L915.085 843.209L1026.68 719.573L1121.84 805.522L1005.86 934.016L1184.15 1112.36C1190.14 1097.54 1193.22 1082.34 1193.22 1067.42C1193.22 1043.5 1186.04 1020.25 1172.09 998.629C1162.27 983.426 1158.78 964.776 1162.74 946.769L1163.29 944.232C1168.88 917.99 1171.81 890.887 1171.81 863.128C1171.81 676.651 1036.43 511.164 840.983 451.723ZM793.427 552.061C749.579 588.911 690.974 621.593 620.62 628.126C637.812 634.162 658.141 637.828 680.373 637.828C715.852 637.828 746.483 628.491 767.259 615.088C788.367 601.471 795.762 586.481 795.762 574.776C795.762 571.637 795.084 564.138 793.427 552.061ZM1223.44 233.77C1077.78 335.591 1035.59 437.481 1031.01 472.383C1030.88 473.393 1030.72 474.43 1030.52 475.489C1076.63 509.148 1116.62 549.332 1148.74 594.48C1213.64 538.292 1241.45 473.648 1249.38 412.23C1258.02 345.26 1243.15 280.553 1223.44 233.77ZM142.562 233.77C122.847 280.553 107.977 345.26 116.624 412.23C124.475 473.04 151.809 537.012 215.336 592.809C247.904 547.437 288.432 507.126 335.141 473.473C335.087 473.106 335.034 472.743 334.987 472.383C330.411 437.481 288.222 335.592 142.562 233.77ZM763.52 394.996C720.459 442.615 658.775 485.621 576.891 494.251C573.415 513.074 570.602 529.701 568.574 543.267C567.349 551.459 566.481 558.098 565.905 563.225C658.258 575.385 732.911 526.885 780.45 476.229C775.655 451.365 769.928 423.721 763.52 394.996ZM728.065 254.141C700.995 287.695 662.2 321.47 609.084 343.977C602.214 372.352 595.842 400.644 590.197 427.325C661.176 412.713 712.29 363.738 744.542 315.274C739.219 294.334 733.697 273.762 728.065 254.141ZM680.373 124.748C675.038 134.05 669.028 146.985 662.57 163.403C652.212 189.735 641.688 222.469 631.532 258.176C666.529 232.862 689.538 201.864 703.072 176.302C701.435 171.853 699.805 167.548 698.174 163.403C691.716 146.986 685.707 134.05 680.373 124.748Z" fill="#49586B"/>
<path fill-rule="evenodd" clip-rule="evenodd" d="M840.986 451.723C953.935 486.073 1046.82 555.838 1105.11 644.604C1105.92 645.839 1106.73 647.079 1107.53 648.322C1148.6 712.3 1171.81 785.915 1171.81 863.128L1171.8 865.729C1171.79 867.737 1171.76 869.741 1171.71 871.742C1171.68 873.11 1171.65 874.476 1171.61 875.841C1171.6 875.949 1171.6 876.058 1171.59 876.166C1171.57 876.897 1171.54 877.627 1171.52 878.356C1171.5 878.766 1171.48 879.176 1171.46 879.586C1171.44 880.087 1171.42 880.589 1171.4 881.09C1171.39 881.368 1171.37 881.645 1171.36 881.923C1171.33 882.467 1171.31 883.012 1171.28 883.556C1171.26 883.908 1171.24 884.26 1171.22 884.611C1171.19 885.084 1171.17 885.558 1171.14 886.03C1171.12 886.324 1171.11 886.617 1171.09 886.91C1171.05 887.527 1171.01 888.144 1170.97 888.76C1170.95 889.042 1170.93 889.324 1170.91 889.606C1170.88 890.077 1170.85 890.548 1170.82 891.019C1170.78 891.508 1170.75 891.998 1170.71 892.487C1170.68 892.851 1170.65 893.215 1170.63 893.578C1170.6 893.906 1170.57 894.234 1170.55 894.562C1170.5 895.1 1170.46 895.637 1170.41 896.175C1170.38 896.537 1170.35 896.898 1170.32 897.26C1170.28 897.759 1170.23 898.258 1170.19 898.757C1170.16 899.071 1170.13 899.385 1170.1 899.699C1170.05 900.246 1169.99 900.793 1169.94 901.34C1169.91 901.625 1169.88 901.911 1169.86 902.196C1169.81 902.688 1169.76 903.18 1169.7 903.671C1169.66 904.082 1169.62 904.493 1169.57 904.903C1169.53 905.349 1169.48 905.795 1169.43 906.241C1169.4 906.494 1169.37 906.746 1169.34 906.999C1169.28 907.568 1169.21 908.136 1169.15 908.704C1169.1 909.057 1169.06 909.411 1169.02 909.764C1168.97 910.209 1168.91 910.653 1168.86 911.098C1168.82 911.436 1168.77 911.775 1168.73 912.113C1168.66 912.701 1168.58 913.288 1168.5 913.875C1168.47 914.16 1168.43 914.444 1168.39 914.729C1168.33 915.187 1168.27 915.645 1168.2 916.103C1168.15 916.49 1168.1 916.877 1168.04 917.265C1167.97 917.824 1167.89 918.382 1167.8 918.94C1167.77 919.149 1167.74 919.358 1167.71 919.566C1167.63 920.166 1167.54 920.765 1167.45 921.363C1167.42 921.553 1167.39 921.743 1167.36 921.933C1167.27 922.554 1167.17 923.175 1167.07 923.795C1167.03 924.042 1166.99 924.289 1166.95 924.535C1166.74 925.903 1166.51 927.268 1166.28 928.632C1166.22 928.964 1166.16 929.295 1166.11 929.627C1166.02 930.128 1165.93 930.628 1165.84 931.128C1165.79 931.414 1165.74 931.701 1165.69 931.987C1165.59 932.529 1165.49 933.07 1165.39 933.61C1165.34 933.904 1165.29 934.197 1165.23 934.49C1165.16 934.862 1165.09 935.234 1165.02 935.605C1164.94 936.054 1164.85 936.502 1164.77 936.95C1164.3 939.385 1163.8 941.812 1163.29 944.232L1162.74 946.769C1158.78 964.776 1162.28 983.426 1172.09 998.629C1186.04 1020.25 1193.22 1043.5 1193.22 1067.42C1193.22 1082.34 1190.14 1097.54 1184.16 1112.36L1005.87 934.016L1121.85 805.522L1026.69 719.573L915.089 843.209L789.082 717.158L698.424 807.848L829.057 938.524L732.159 1045.88L827.319 1131.83L919.835 1029.33L1093.84 1203.39C1073.07 1213.68 1049.27 1221.66 1022.66 1226.49L1019.26 1227.09C1013.03 1228.24 1007.04 1230.16 1001.41 1232.76C1001.36 1232.78 1001.31 1232.81 1001.26 1232.83C1000.33 1233.26 999.419 1233.71 998.515 1234.17C998.474 1234.19 998.433 1234.21 998.391 1234.23C997.23 1234.83 996.086 1235.46 994.96 1236.12C994.942 1236.13 994.925 1236.14 994.908 1236.15C994.468 1236.41 994.031 1236.67 993.596 1236.94C992.18 1237.81 990.795 1238.72 989.441 1239.68C989.039 1239.96 988.639 1240.25 988.243 1240.54C988.235 1240.55 988.227 1240.55 988.219 1240.56C988.008 1240.72 987.797 1240.87 987.588 1241.03C987.584 1241.03 987.582 1241.04 987.579 1241.04C987.179 1241.34 986.781 1241.64 986.387 1241.95C985.898 1242.34 985.413 1242.73 984.933 1243.13C984.573 1243.42 984.216 1243.72 983.861 1244.03C982.977 1244.79 982.11 1245.57 981.261 1246.36C980.957 1246.65 980.655 1246.94 980.356 1247.23C978.215 1249.31 976.197 1251.52 974.313 1253.85C974.169 1254.03 974.026 1254.21 973.883 1254.39C969.808 1259.52 966.384 1265.2 963.754 1271.33C963.595 1271.7 963.441 1272.07 963.288 1272.44C961.478 1276.86 960.075 1281.49 959.133 1286.3C959.057 1286.69 958.985 1287.07 958.915 1287.46C958.51 1289.72 958.205 1292.01 958.007 1294.34C957.989 1294.55 957.972 1294.76 957.956 1294.96C957.899 1295.7 957.853 1296.44 957.818 1297.18C957.797 1297.63 957.779 1298.07 957.765 1298.52C957.742 1299.29 957.73 1300.06 957.73 1300.84V1325.48L957.716 1326.61C957.706 1326.97 957.693 1327.34 957.675 1327.7C957.65 1328.21 957.612 1328.72 957.569 1329.23C957.552 1329.44 957.536 1329.65 957.515 1329.85C957.494 1330.07 957.468 1330.29 957.443 1330.5C957.423 1330.68 957.405 1330.85 957.383 1331.02C957.361 1331.2 957.335 1331.37 957.311 1331.55C957.287 1331.72 957.266 1331.9 957.24 1332.07C957.207 1332.29 957.17 1332.51 957.133 1332.72C957.109 1332.87 957.087 1333.02 957.061 1333.16C957.035 1333.31 957.005 1333.46 956.977 1333.61C956.939 1333.82 956.901 1334.02 956.86 1334.23C956.812 1334.47 956.759 1334.71 956.707 1334.94C956.685 1335.05 956.663 1335.15 956.64 1335.25C956.594 1335.45 956.545 1335.65 956.496 1335.85C956.457 1336.02 956.42 1336.18 956.38 1336.34C956.336 1336.51 956.288 1336.68 956.243 1336.85C956.199 1337.01 956.156 1337.18 956.11 1337.34C956.051 1337.55 955.989 1337.77 955.926 1337.98C955.888 1338.1 955.851 1338.23 955.811 1338.36C955.755 1338.54 955.696 1338.73 955.637 1338.91C955.586 1339.07 955.535 1339.23 955.482 1339.39C955.421 1339.57 955.359 1339.75 955.296 1339.93C955.244 1340.08 955.192 1340.23 955.139 1340.37C955.078 1340.54 955.014 1340.71 954.95 1340.88C954.885 1341.06 954.82 1341.23 954.753 1341.4C954.709 1341.51 954.664 1341.63 954.62 1341.74C954.537 1341.94 954.454 1342.15 954.369 1342.35C954.298 1342.52 954.226 1342.69 954.153 1342.86C954.088 1343.01 954.023 1343.16 953.957 1343.31C953.88 1343.48 953.801 1343.65 953.722 1343.82C953.657 1343.96 953.592 1344.1 953.526 1344.24C953.443 1344.42 953.358 1344.59 953.273 1344.76C953.201 1344.91 953.128 1345.06 953.054 1345.2C952.973 1345.37 952.889 1345.53 952.805 1345.69C952.73 1345.83 952.655 1345.98 952.578 1346.12C952.489 1346.28 952.398 1346.45 952.307 1346.61C952.23 1346.75 952.153 1346.89 952.075 1347.03C951.986 1347.19 951.895 1347.34 951.803 1347.5C951.726 1347.63 951.649 1347.76 951.571 1347.9C951.476 1348.05 951.379 1348.21 951.282 1348.37C951.187 1348.52 951.092 1348.68 950.995 1348.83C950.911 1348.96 950.826 1349.09 950.741 1349.23C950.637 1349.39 950.533 1349.54 950.427 1349.7C950.346 1349.82 950.264 1349.95 950.181 1350.07C950.067 1350.23 949.953 1350.4 949.837 1350.56C949.751 1350.69 949.665 1350.81 949.579 1350.93C949.462 1351.09 949.344 1351.25 949.225 1351.41C949.136 1351.53 949.046 1351.65 948.956 1351.77C948.847 1351.91 948.739 1352.06 948.629 1352.2C948.52 1352.34 948.41 1352.48 948.299 1352.62C948.189 1352.76 948.077 1352.9 947.965 1353.03C947.877 1353.14 947.788 1353.25 947.699 1353.36C947.561 1353.52 947.422 1353.69 947.282 1353.85C947.191 1353.96 947.1 1354.06 947.008 1354.17C946.893 1354.3 946.778 1354.43 946.662 1354.56C946.536 1354.7 946.408 1354.84 946.28 1354.98C946.166 1355.1 946.052 1355.22 945.937 1355.35C945.83 1355.46 945.722 1355.57 945.614 1355.69C945.484 1355.82 945.352 1355.96 945.22 1356.09C945.109 1356.2 944.997 1356.32 944.884 1356.43C944.761 1356.55 944.637 1356.67 944.512 1356.79C944.384 1356.92 944.254 1357.04 944.124 1357.16C944.002 1357.28 943.88 1357.39 943.757 1357.51C943.637 1357.62 943.516 1357.73 943.395 1357.84C943.261 1357.96 943.127 1358.08 942.992 1358.2C942.858 1358.31 942.724 1358.43 942.59 1358.54C942.478 1358.64 942.365 1358.74 942.253 1358.83C942.107 1358.95 941.961 1359.07 941.814 1359.2C941.696 1359.29 941.577 1359.39 941.459 1359.48C941.306 1359.6 941.152 1359.73 940.998 1359.85C940.879 1359.94 940.759 1360.03 940.638 1360.12C940.493 1360.23 940.347 1360.34 940.2 1360.45C940.058 1360.56 939.915 1360.66 939.772 1360.77C939.644 1360.86 939.515 1360.95 939.385 1361.04C939.241 1361.15 939.095 1361.25 938.949 1361.35C938.804 1361.45 938.659 1361.55 938.513 1361.64C938.379 1361.73 938.244 1361.82 938.108 1361.91C937.967 1362 937.826 1362.1 937.684 1362.19C937.54 1362.28 937.395 1362.37 937.25 1362.46C937.095 1362.55 936.94 1362.65 936.784 1362.74C936.629 1362.84 936.473 1362.93 936.317 1363.02C936.187 1363.1 936.057 1363.17 935.925 1363.25C935.756 1363.35 935.586 1363.44 935.416 1363.54C935.283 1363.61 935.15 1363.68 935.016 1363.75C934.851 1363.84 934.685 1363.93 934.518 1364.02C934.38 1364.09 934.243 1364.16 934.104 1364.23C933.943 1364.32 933.78 1364.4 933.618 1364.48C933.464 1364.55 933.311 1364.63 933.156 1364.7C932.987 1364.78 932.816 1364.86 932.645 1364.94C932.518 1365 932.392 1365.06 932.264 1365.12C932.066 1365.21 931.867 1365.29 931.668 1365.38C931.545 1365.43 931.423 1365.49 931.3 1365.54C931.106 1365.62 930.91 1365.7 930.714 1365.78C930.591 1365.83 930.468 1365.88 930.344 1365.93C930.135 1366.01 929.924 1366.09 929.713 1366.17C929.603 1366.21 929.493 1366.25 929.383 1366.29C929.175 1366.37 928.966 1366.44 928.757 1366.51C928.63 1366.56 928.504 1366.6 928.378 1366.65C928.194 1366.71 928.01 1366.77 927.826 1366.83C927.678 1366.87 927.53 1366.92 927.381 1366.97C927.191 1367.03 927.001 1367.08 926.81 1367.14C926.669 1367.18 926.528 1367.22 926.385 1367.26C926.186 1367.32 925.986 1367.37 925.786 1367.43C925.647 1367.46 925.509 1367.5 925.37 1367.54C925.179 1367.59 924.988 1367.63 924.797 1367.68C924.643 1367.72 924.49 1367.75 924.337 1367.79C924.173 1367.83 924.009 1367.86 923.845 1367.9C923.665 1367.94 923.485 1367.98 923.303 1368.01C923.118 1368.05 922.931 1368.09 922.745 1368.12C922.589 1368.15 922.434 1368.18 922.278 1368.21C922.052 1368.25 921.825 1368.29 921.597 1368.32C921.479 1368.34 921.361 1368.36 921.243 1368.38C921 1368.42 920.756 1368.45 920.511 1368.49C920.401 1368.5 920.291 1368.52 920.18 1368.53C919.953 1368.56 919.725 1368.59 919.497 1368.61C919.369 1368.62 919.241 1368.64 919.113 1368.65C918.886 1368.68 918.658 1368.7 918.43 1368.71C918.302 1368.73 918.173 1368.74 918.045 1368.75C917.748 1368.77 917.45 1368.79 917.152 1368.81C917.093 1368.81 917.034 1368.81 916.975 1368.82C916.783 1368.83 916.59 1368.83 916.397 1368.84C916.229 1368.85 916.06 1368.86 915.891 1368.86L914.795 1368.87H870.555V1321.85C870.555 1320.02 870.347 1318.24 869.953 1316.54C869.865 1316.16 869.768 1315.78 869.663 1315.41C869.61 1315.22 869.555 1315.04 869.498 1314.85C869.097 1313.57 868.589 1312.33 867.983 1311.14C867.291 1309.79 866.471 1308.51 865.541 1307.33C864.959 1306.59 864.334 1305.89 863.67 1305.22C863.271 1304.82 862.858 1304.44 862.431 1304.07C862.147 1303.82 861.857 1303.58 861.561 1303.35C861.413 1303.23 861.264 1303.12 861.113 1303.01C860.359 1302.44 859.569 1301.92 858.749 1301.45C858.257 1301.17 857.753 1300.9 857.24 1300.65C856.897 1300.49 856.55 1300.33 856.198 1300.18C855.671 1299.96 855.134 1299.75 854.588 1299.57C853.859 1299.32 853.115 1299.11 852.357 1298.94C851.03 1298.63 849.661 1298.44 848.258 1298.36C848.058 1298.35 847.857 1298.35 847.656 1298.34L847.049 1298.33H829.955L829.348 1298.34C816.647 1298.66 806.45 1309.06 806.45 1321.85V1368.87H712.428V1321.85C712.428 1320.02 712.22 1318.24 711.826 1316.54C711.738 1316.16 711.641 1315.78 711.536 1315.41C711.483 1315.22 711.428 1315.04 711.371 1314.85C710.97 1313.57 710.462 1312.33 709.856 1311.14C709.164 1309.79 708.344 1308.51 707.414 1307.33C706.832 1306.59 706.207 1305.89 705.543 1305.22C705.144 1304.82 704.731 1304.44 704.304 1304.07C704.02 1303.82 703.73 1303.58 703.434 1303.35C703.286 1303.23 703.137 1303.12 702.986 1303.01C702.232 1302.44 701.442 1301.92 700.622 1301.45C700.13 1301.17 699.627 1300.9 699.113 1300.65C698.77 1300.49 698.423 1300.33 698.071 1300.18C697.544 1299.96 697.007 1299.75 696.461 1299.57C695.733 1299.32 694.988 1299.11 694.23 1298.94C692.903 1298.63 691.534 1298.44 690.132 1298.36C689.931 1298.35 689.73 1298.35 689.529 1298.34L688.923 1298.33H671.828L671.221 1298.34C658.52 1298.66 648.323 1309.06 648.323 1321.85V1368.87H554.301V1321.85C554.301 1320.02 554.093 1318.24 553.699 1316.54C553.611 1316.16 553.515 1315.78 553.409 1315.41C553.356 1315.22 553.301 1315.04 553.244 1314.85C552.843 1313.57 552.335 1312.33 551.729 1311.14C551.037 1309.79 550.217 1308.51 549.287 1307.33C548.705 1306.59 548.08 1305.89 547.416 1305.22C547.017 1304.82 546.604 1304.44 546.177 1304.07C545.893 1303.82 545.603 1303.58 545.307 1303.35C545.011 1303.12 544.709 1302.89 544.402 1302.67C543.788 1302.23 543.151 1301.83 542.495 1301.45C542.003 1301.17 541.5 1300.9 540.986 1300.65C540.643 1300.49 540.296 1300.33 539.944 1300.18C539.241 1299.88 538.521 1299.62 537.785 1299.39C537.233 1299.22 536.672 1299.07 536.103 1298.94C534.776 1298.63 533.407 1298.44 532.005 1298.36C531.804 1298.35 531.604 1298.35 531.402 1298.34L530.796 1298.33H513.701L513.094 1298.34C500.393 1298.66 490.196 1309.06 490.196 1321.85V1368.87H437.392L436.296 1368.86C435.933 1368.85 435.572 1368.84 435.212 1368.82C435.175 1368.82 435.138 1368.81 435.101 1368.81C434.774 1368.79 434.448 1368.77 434.123 1368.75C434.11 1368.75 434.097 1368.75 434.085 1368.74C433.744 1368.72 433.405 1368.69 433.067 1368.65C432.998 1368.65 432.93 1368.64 432.861 1368.63C432.576 1368.6 432.292 1368.57 432.008 1368.53C431.915 1368.52 431.822 1368.51 431.728 1368.49C431.477 1368.46 431.226 1368.43 430.976 1368.39C430.845 1368.37 430.714 1368.35 430.584 1368.32C430.37 1368.29 430.157 1368.26 429.945 1368.22C429.782 1368.19 429.619 1368.16 429.457 1368.13C429.285 1368.09 429.113 1368.06 428.942 1368.03C428.772 1367.99 428.602 1367.95 428.432 1367.92C428.251 1367.88 428.069 1367.84 427.888 1367.8C427.732 1367.76 427.576 1367.73 427.421 1367.69C427.247 1367.65 427.074 1367.6 426.902 1367.56C426.743 1367.52 426.584 1367.48 426.425 1367.43C426.236 1367.38 426.047 1367.33 425.859 1367.28C425.712 1367.24 425.565 1367.2 425.419 1367.15C425.244 1367.1 425.068 1367.05 424.894 1367C424.744 1366.95 424.595 1366.9 424.446 1366.85C424.25 1366.79 424.055 1366.73 423.86 1366.66C423.736 1366.62 423.612 1366.58 423.489 1366.54C423.287 1366.47 423.087 1366.4 422.886 1366.32C422.765 1366.28 422.644 1366.23 422.523 1366.19C422.32 1366.11 422.118 1366.04 421.916 1365.96C421.794 1365.91 421.673 1365.86 421.552 1365.81C421.363 1365.74 421.174 1365.66 420.985 1365.58C420.834 1365.52 420.684 1365.45 420.534 1365.39C420.393 1365.33 420.252 1365.26 420.111 1365.2C419.929 1365.12 419.749 1365.04 419.568 1364.96C419.43 1364.89 419.293 1364.83 419.156 1364.76C418.999 1364.69 418.842 1364.61 418.686 1364.54C418.513 1364.45 418.341 1364.37 418.17 1364.28C418.051 1364.22 417.932 1364.16 417.813 1364.1C417.627 1364 417.442 1363.9 417.258 1363.8C417.135 1363.74 417.012 1363.67 416.89 1363.6C416.716 1363.51 416.543 1363.41 416.37 1363.31C416.245 1363.24 416.12 1363.17 415.996 1363.1C415.844 1363.01 415.693 1362.92 415.543 1362.83C415.39 1362.74 415.237 1362.65 415.086 1362.55C414.942 1362.46 414.8 1362.37 414.658 1362.28C414.518 1362.2 414.378 1362.11 414.239 1362.02C414.1 1361.93 413.962 1361.84 413.824 1361.74C413.676 1361.65 413.529 1361.55 413.383 1361.45C413.236 1361.35 413.091 1361.25 412.945 1361.14C412.813 1361.05 412.681 1360.96 412.55 1360.87C412.418 1360.77 412.286 1360.67 412.154 1360.58C412.004 1360.47 411.853 1360.36 411.705 1360.24C411.6 1360.16 411.496 1360.08 411.392 1360C411.236 1359.88 411.079 1359.76 410.924 1359.64C410.762 1359.51 410.603 1359.38 410.444 1359.25C410.338 1359.17 410.232 1359.08 410.127 1359C410.019 1358.91 409.913 1358.81 409.805 1358.72C409.652 1358.59 409.498 1358.46 409.346 1358.33C408.901 1357.94 408.465 1357.54 408.036 1357.14C407.976 1357.08 407.914 1357.03 407.854 1356.97C407.365 1356.5 406.885 1356.02 406.418 1355.53C406.289 1355.39 406.164 1355.26 406.038 1355.12C405.936 1355.01 405.832 1354.9 405.731 1354.79C405.586 1354.63 405.445 1354.47 405.302 1354.31C405.218 1354.21 405.132 1354.12 405.048 1354.02C404.937 1353.89 404.829 1353.76 404.72 1353.63C404.608 1353.5 404.495 1353.37 404.383 1353.23C404.267 1353.09 404.153 1352.95 404.039 1352.81C403.945 1352.69 403.85 1352.58 403.758 1352.46C403.644 1352.31 403.533 1352.17 403.422 1352.02C403.321 1351.89 403.22 1351.76 403.121 1351.63C403.014 1351.49 402.911 1351.34 402.806 1351.2C402.713 1351.07 402.619 1350.95 402.527 1350.82C402.417 1350.66 402.308 1350.51 402.2 1350.35C402.111 1350.22 402.023 1350.09 401.935 1349.97C401.831 1349.81 401.728 1349.66 401.626 1349.5C401.545 1349.38 401.465 1349.26 401.385 1349.13C401.27 1348.96 401.157 1348.78 401.044 1348.59C400.975 1348.49 400.907 1348.38 400.84 1348.27C400.734 1348.09 400.63 1347.92 400.526 1347.74C400.45 1347.62 400.375 1347.49 400.3 1347.36C400.209 1347.2 400.12 1347.05 400.031 1346.89C399.954 1346.75 399.876 1346.61 399.8 1346.47C399.704 1346.3 399.609 1346.12 399.514 1345.94C399.447 1345.82 399.379 1345.69 399.313 1345.56C399.228 1345.39 399.144 1345.23 399.061 1345.06C398.99 1344.92 398.918 1344.78 398.848 1344.63C398.763 1344.46 398.679 1344.28 398.595 1344.11C398.53 1343.97 398.466 1343.83 398.402 1343.69C398.324 1343.52 398.248 1343.35 398.172 1343.18C398.111 1343.04 398.05 1342.9 397.991 1342.76C397.911 1342.58 397.832 1342.39 397.755 1342.2C397.691 1342.05 397.628 1341.89 397.566 1341.74C397.501 1341.58 397.437 1341.41 397.375 1341.25C397.315 1341.1 397.256 1340.94 397.198 1340.78C397.139 1340.62 397.079 1340.46 397.021 1340.3C396.964 1340.14 396.908 1339.98 396.852 1339.82C396.786 1339.63 396.72 1339.44 396.656 1339.24C396.613 1339.11 396.572 1338.99 396.531 1338.86C396.471 1338.67 396.412 1338.48 396.355 1338.29C396.299 1338.11 396.245 1337.92 396.191 1337.74C396.145 1337.58 396.099 1337.42 396.054 1337.26C396.013 1337.11 395.973 1336.96 395.932 1336.81C395.883 1336.62 395.832 1336.44 395.785 1336.25C395.742 1336.08 395.702 1335.91 395.661 1335.74C395.619 1335.56 395.577 1335.39 395.538 1335.21C395.5 1335.04 395.464 1334.87 395.427 1334.71C395.39 1334.53 395.352 1334.35 395.316 1334.17C395.279 1333.99 395.245 1333.8 395.21 1333.61C395.179 1333.45 395.146 1333.28 395.117 1333.11C395.086 1332.94 395.058 1332.76 395.029 1332.58C395.001 1332.4 394.971 1332.23 394.945 1332.05C394.924 1331.91 394.905 1331.77 394.884 1331.62C394.804 1331.04 394.732 1330.46 394.674 1329.88C394.652 1329.66 394.636 1329.45 394.618 1329.23C394.514 1328 394.457 1326.74 394.457 1325.48V1299.26C394.457 1297.24 394.377 1295.24 394.221 1293.27C394.199 1292.98 394.175 1292.7 394.15 1292.42C394.049 1291.3 393.923 1290.18 393.773 1289.07C393.698 1288.52 393.617 1287.97 393.53 1287.42C393.443 1286.87 393.351 1286.32 393.252 1285.77C393.202 1285.5 393.151 1285.23 393.098 1284.96C392.994 1284.41 392.883 1283.87 392.766 1283.33C392.592 1282.53 392.404 1281.72 392.204 1280.92C391.937 1279.86 391.647 1278.81 391.335 1277.76C390.945 1276.46 390.52 1275.17 390.062 1273.9C389.879 1273.39 389.691 1272.88 389.497 1272.38C389.303 1271.87 389.104 1271.37 388.9 1270.87C388.389 1269.63 387.846 1268.4 387.271 1267.19C387.156 1266.95 387.04 1266.71 386.923 1266.47C386.1 1264.78 385.216 1263.14 384.275 1261.53C383.603 1260.38 382.901 1259.25 382.171 1258.15C381.878 1257.7 381.582 1257.26 381.281 1256.83C380.98 1256.39 380.673 1255.96 380.363 1255.53C380.053 1255.1 379.738 1254.68 379.42 1254.25C378.463 1252.99 377.468 1251.75 376.435 1250.55C376.091 1250.15 375.742 1249.75 375.389 1249.36C375.037 1248.97 374.681 1248.58 374.32 1248.19C373.96 1247.81 373.595 1247.42 373.227 1247.05C372.859 1246.67 372.486 1246.29 372.11 1245.92C371.734 1245.56 371.354 1245.19 370.97 1244.83C369.436 1243.38 367.841 1242 366.19 1240.68C365.778 1240.35 365.361 1240.03 364.942 1239.71C364.523 1239.39 364.1 1239.07 363.674 1238.76C363.247 1238.45 362.818 1238.14 362.385 1237.84C361.953 1237.54 361.516 1237.24 361.077 1236.95C359.979 1236.21 358.86 1235.51 357.723 1234.83C355.905 1233.75 354.038 1232.74 352.128 1231.82C351.65 1231.58 351.169 1231.36 350.686 1231.13C349.962 1230.8 349.231 1230.48 348.495 1230.17C347.023 1229.55 345.528 1228.97 344.012 1228.44C342.244 1227.83 340.446 1227.27 338.624 1226.79C338.103 1226.65 337.581 1226.52 337.056 1226.39C336.269 1226.2 335.477 1226.02 334.681 1225.85C334.416 1225.8 334.151 1225.74 333.884 1225.69C333.053 1225.53 332.224 1225.36 331.398 1225.19C328.096 1224.51 324.839 1223.78 321.628 1223C316.81 1221.84 312.096 1220.57 307.487 1219.2C304.414 1218.29 301.388 1217.33 298.409 1216.33C295.43 1215.33 292.497 1214.28 289.612 1213.2C285.285 1211.57 281.064 1209.85 276.951 1208.05C270.096 1205.04 263.54 1201.79 257.291 1198.33C256.666 1197.98 256.044 1197.63 255.424 1197.28C254.187 1196.58 252.962 1195.87 251.749 1195.16C250.536 1194.44 249.335 1193.71 248.147 1192.98C246.959 1192.24 245.782 1191.5 244.619 1190.75C241.128 1188.5 237.75 1186.18 234.484 1183.79C232.851 1182.6 231.247 1181.39 229.671 1180.17C227.044 1178.13 224.497 1176.05 222.029 1173.92C221.042 1173.07 220.068 1172.22 219.106 1171.36C218.145 1170.5 217.196 1169.63 216.26 1168.75C214.389 1167.01 212.569 1165.24 210.801 1163.44C209.918 1162.55 209.047 1161.64 208.189 1160.74C207.331 1159.83 206.486 1158.92 205.654 1158C204.822 1157.08 204.003 1156.16 203.198 1155.23C198.365 1149.67 194.004 1143.93 190.129 1138.06C189.483 1137.08 188.85 1136.1 188.231 1135.11C187.612 1134.13 187.007 1133.14 186.415 1132.15C184.935 1129.67 183.54 1127.17 182.23 1124.65C181.182 1122.64 180.189 1120.61 179.252 1118.58C179.017 1118.07 178.786 1117.57 178.558 1117.06C177.648 1115.02 176.793 1112.97 175.994 1110.92C175.594 1109.9 175.208 1108.87 174.837 1107.84C173.721 1104.75 172.731 1101.65 171.869 1098.54C171.437 1096.99 171.038 1095.43 170.671 1093.88C170.426 1092.84 170.195 1091.8 169.978 1090.76C169.653 1089.2 169.361 1087.64 169.1 1086.08C168.84 1084.53 168.611 1082.97 168.415 1081.41C168.284 1080.37 168.168 1079.33 168.066 1078.29C167.913 1076.74 167.793 1075.18 167.706 1073.62C167.647 1072.59 167.604 1071.55 167.575 1070.52C167.546 1069.49 167.531 1068.45 167.531 1067.42C167.531 1066.43 167.544 1065.44 167.569 1064.45C167.575 1064.21 167.581 1063.96 167.589 1063.72C167.653 1061.65 167.771 1059.59 167.943 1057.53C167.952 1057.43 167.959 1057.32 167.968 1057.22C167.991 1056.95 168.016 1056.68 168.041 1056.42C168.05 1056.32 168.059 1056.22 168.069 1056.12C168.091 1055.88 168.115 1055.65 168.138 1055.42C168.154 1055.26 168.17 1055.11 168.186 1054.95C168.21 1054.73 168.234 1054.51 168.258 1054.29C168.279 1054.1 168.3 1053.92 168.321 1053.73C168.344 1053.54 168.367 1053.34 168.39 1053.15C168.407 1053.01 168.423 1052.87 168.44 1052.74C168.57 1051.7 168.714 1050.66 168.871 1049.62C168.888 1049.51 168.904 1049.4 168.922 1049.28C168.947 1049.12 168.974 1048.95 169.001 1048.79C169.03 1048.6 169.059 1048.41 169.09 1048.23C169.13 1047.98 169.171 1047.74 169.213 1047.49C169.241 1047.33 169.27 1047.16 169.299 1047C169.348 1046.71 169.398 1046.43 169.45 1046.15C169.457 1046.11 169.463 1046.07 169.469 1046.03C169.52 1045.76 169.572 1045.48 169.625 1045.21C169.643 1045.11 169.66 1045.02 169.678 1044.92C169.743 1044.59 169.809 1044.26 169.876 1043.92C169.883 1043.88 169.89 1043.85 169.897 1043.81C170.023 1043.19 170.155 1042.57 170.291 1041.95C170.325 1041.79 170.359 1041.64 170.393 1041.48C170.436 1041.29 170.48 1041.1 170.523 1040.91C170.567 1040.72 170.612 1040.52 170.657 1040.33C170.701 1040.14 170.747 1039.95 170.793 1039.75C170.826 1039.62 170.858 1039.48 170.892 1039.34C170.95 1039.1 171.008 1038.86 171.067 1038.62C171.099 1038.49 171.132 1038.36 171.165 1038.23C171.228 1037.98 171.291 1037.73 171.356 1037.48C171.387 1037.37 171.419 1037.25 171.45 1037.13C171.524 1036.85 171.599 1036.56 171.675 1036.28C171.695 1036.21 171.714 1036.13 171.734 1036.06C171.809 1035.78 171.885 1035.51 171.962 1035.24C171.986 1035.15 172.011 1035.06 172.036 1034.97C172.115 1034.69 172.195 1034.41 172.276 1034.13C172.322 1033.97 172.368 1033.81 172.415 1033.66C172.682 1032.75 172.96 1031.84 173.249 1030.93C173.298 1030.78 173.348 1030.62 173.397 1030.47C173.592 1029.87 173.791 1029.26 173.996 1028.66C174.023 1028.58 174.051 1028.5 174.079 1028.42C174.161 1028.18 174.244 1027.94 174.328 1027.7C174.383 1027.54 174.44 1027.38 174.496 1027.22C174.583 1026.97 174.671 1026.73 174.76 1026.48C174.78 1026.43 174.799 1026.37 174.819 1026.32C174.927 1026.02 175.037 1025.72 175.147 1025.42C175.184 1025.32 175.221 1025.22 175.258 1025.12C175.353 1024.87 175.447 1024.62 175.543 1024.37C175.583 1024.26 175.623 1024.16 175.663 1024.05C175.757 1023.81 175.851 1023.56 175.947 1023.32C176.006 1023.17 176.066 1023.02 176.126 1022.87C176.205 1022.67 176.284 1022.47 176.364 1022.27C176.42 1022.13 176.477 1021.99 176.534 1021.84C176.632 1021.6 176.73 1021.36 176.83 1021.12C176.907 1020.93 176.984 1020.75 177.062 1020.56C177.125 1020.41 177.188 1020.26 177.252 1020.11C177.307 1019.97 177.363 1019.84 177.42 1019.71C177.673 1019.11 177.931 1018.52 178.194 1017.93C178.241 1017.82 178.29 1017.71 178.338 1017.61C178.613 1016.99 178.893 1016.37 179.178 1015.76C179.217 1015.68 179.255 1015.6 179.294 1015.51C182.241 1009.21 185.733 1003.01 189.765 996.94C189.838 996.832 189.908 996.722 189.98 996.612C190.177 996.312 190.373 996.01 190.565 995.707C191.212 994.687 191.83 993.652 192.42 992.604C192.597 992.289 192.771 991.973 192.943 991.655C193.302 990.992 193.65 990.323 193.987 989.649C194.178 989.267 194.365 988.882 194.549 988.496C194.734 988.106 194.918 987.715 195.096 987.322C200.77 974.812 202.623 960.725 200.13 946.889C199.997 946.153 199.854 945.417 199.697 944.683C199.185 942.295 198.697 939.899 198.229 937.497C198.226 937.482 198.222 937.467 198.219 937.452C198.1 936.837 197.984 936.221 197.867 935.605C197.823 935.374 197.778 935.143 197.735 934.912C197.661 934.515 197.588 934.117 197.514 933.72C197.425 933.232 197.335 932.745 197.247 932.257C197.203 932.013 197.159 931.769 197.116 931.524C197.026 931.02 196.935 930.515 196.847 930.01C196.772 929.577 196.699 929.145 196.625 928.712C196.557 928.316 196.489 927.919 196.423 927.522C196.365 927.18 196.309 926.836 196.253 926.493C196.169 925.984 196.086 925.475 196.004 924.965C195.95 924.631 195.897 924.296 195.844 923.962C195.771 923.5 195.698 923.038 195.627 922.576C195.564 922.172 195.504 921.768 195.443 921.363C195.372 920.892 195.301 920.42 195.231 919.948C195.186 919.638 195.14 919.329 195.095 919.019C195.018 918.482 194.941 917.945 194.866 917.407C194.822 917.094 194.778 916.781 194.735 916.468C194.675 916.031 194.615 915.594 194.556 915.156C194.499 914.727 194.442 914.298 194.385 913.869C194.332 913.461 194.279 913.052 194.226 912.644C194.172 912.221 194.119 911.798 194.066 911.375C194.016 910.971 193.967 910.567 193.918 910.163C193.859 909.677 193.801 909.191 193.744 908.704C193.708 908.403 193.672 908.101 193.637 907.8C193.578 907.281 193.519 906.761 193.462 906.241C193.421 905.877 193.381 905.513 193.341 905.148C193.286 904.637 193.233 904.126 193.179 903.614C193.141 903.249 193.104 902.884 193.067 902.519C193.031 902.162 192.995 901.806 192.96 901.449C192.916 901.002 192.872 900.556 192.83 900.108C192.787 899.653 192.744 899.198 192.703 898.742C192.67 898.381 192.637 898.02 192.605 897.659C192.564 897.195 192.524 896.73 192.484 896.266C192.454 895.914 192.425 895.562 192.396 895.21C192.351 894.665 192.307 894.119 192.264 893.573C192.237 893.221 192.211 892.869 192.184 892.517C192.151 892.071 192.117 891.626 192.085 891.181C192.061 890.847 192.038 890.513 192.015 890.18C191.98 889.666 191.944 889.152 191.911 888.638C191.882 888.195 191.855 887.752 191.828 887.309C191.801 886.883 191.775 886.457 191.75 886.03C191.732 885.732 191.716 885.433 191.699 885.135C191.624 883.8 191.554 882.464 191.493 881.126C191.473 880.69 191.455 880.254 191.436 879.818C191.418 879.382 191.399 878.945 191.382 878.508C191.366 878.1 191.351 877.692 191.337 877.284C191.321 876.86 191.306 876.436 191.292 876.012C191.275 875.51 191.261 875.008 191.247 874.506C191.137 870.726 191.081 866.933 191.081 863.128C191.081 860.951 191.099 858.777 191.135 856.606C191.209 852.265 191.356 847.935 191.575 843.618C191.648 842.179 191.73 840.742 191.819 839.306C191.864 838.588 191.91 837.87 191.959 837.152C192.056 835.718 192.16 834.285 192.273 832.854C192.556 829.275 192.889 825.706 193.27 822.147C193.575 819.301 193.911 816.46 194.279 813.627C194.831 809.377 195.452 805.143 196.143 800.926C196.374 799.52 196.612 798.116 196.857 796.714C197.103 795.312 197.356 793.911 197.617 792.513C198.139 789.716 198.691 786.927 199.273 784.146C199.71 782.061 200.164 779.98 200.634 777.903C200.948 776.519 201.27 775.137 201.598 773.757C202.091 771.687 202.601 769.621 203.128 767.561C203.654 765.5 204.197 763.444 204.757 761.394C204.943 760.71 205.132 760.027 205.322 759.345C205.702 757.98 206.09 756.617 206.485 755.257C206.88 753.896 207.282 752.538 207.692 751.183C208.102 749.827 208.519 748.474 208.943 747.123C211.7 738.342 214.761 729.661 218.118 721.092C218.634 719.773 219.158 718.458 219.688 717.145C219.953 716.488 220.22 715.832 220.489 715.177C221.026 713.866 221.57 712.558 222.122 711.253C222.397 710.601 222.675 709.949 222.954 709.298C223.791 707.345 224.643 705.398 225.511 703.457C227.248 699.575 229.045 695.719 230.903 691.889C232.142 689.335 233.408 686.794 234.7 684.265C236.638 680.47 238.637 676.704 240.694 672.965C241.38 671.719 242.071 670.475 242.77 669.235C243.12 668.615 243.471 667.996 243.824 667.377C244.529 666.14 245.241 664.907 245.959 663.677C247.395 661.216 248.858 658.768 250.345 656.334C251.089 655.117 251.84 653.903 252.596 652.692C253.732 650.876 254.881 649.068 256.045 647.267C257.208 645.466 258.385 643.674 259.577 641.889C261.563 638.913 263.588 635.96 265.652 633.028C266.478 631.856 267.309 630.687 268.147 629.521C268.985 628.356 269.829 627.195 270.678 626.037C271.528 624.879 272.385 623.725 273.247 622.574C274.971 620.273 276.719 617.986 278.492 615.715C280.264 613.443 282.061 611.187 283.881 608.946C284.791 607.826 285.707 606.709 286.629 605.597C287.55 604.484 288.477 603.375 289.411 602.271C290.344 601.166 291.284 600.065 292.229 598.968C293.647 597.322 295.078 595.686 296.521 594.059C297.002 593.516 297.485 592.975 297.968 592.435C298.937 591.354 299.911 590.277 300.89 589.204C301.38 588.668 301.871 588.132 302.364 587.598C303.349 586.529 304.34 585.465 305.337 584.404C308.326 581.223 311.367 578.08 314.458 574.975C316.003 573.422 317.561 571.88 319.131 570.347C322.271 567.28 325.46 564.253 328.698 561.266C329.777 560.27 330.862 559.279 331.952 558.292C332.497 557.799 333.043 557.306 333.591 556.815C334.686 555.833 335.786 554.855 336.892 553.882C338.551 552.422 340.222 550.973 341.905 549.534C345.27 546.656 348.682 543.819 352.14 541.025C353.293 540.094 354.452 539.167 355.615 538.245C361.43 533.636 367.372 529.146 373.437 524.781C374.044 524.345 374.651 523.91 375.26 523.476C377.088 522.173 378.926 520.883 380.775 519.604C381.391 519.177 382.008 518.752 382.627 518.328C385.102 516.632 387.596 514.957 390.109 513.302C391.994 512.061 393.889 510.831 395.796 509.613C397.067 508.801 398.342 507.995 399.623 507.193C400.903 506.392 402.188 505.596 403.477 504.806C405.411 503.62 407.356 502.445 409.31 501.283C409.962 500.896 410.615 500.51 411.269 500.125C412.577 499.356 413.889 498.591 415.206 497.832C415.864 497.453 416.524 497.075 417.185 496.698C419.828 495.192 422.489 493.708 425.168 492.245C426.507 491.514 427.851 490.788 429.199 490.067C430.547 489.347 431.9 488.633 433.257 487.924C436.649 486.151 440.068 484.414 443.514 482.712C447.65 480.67 451.824 478.678 456.036 476.739C457.44 476.093 458.848 475.453 460.26 474.818C461.673 474.184 463.089 473.555 464.509 472.933C469.481 470.753 474.503 468.646 479.573 466.612C481.022 466.031 482.474 465.456 483.93 464.887C484.659 464.602 485.388 464.32 486.119 464.038C487.579 463.475 489.043 462.919 490.511 462.368C491.246 462.093 491.981 461.819 492.717 461.547C494.19 461.003 495.665 460.465 497.145 459.933C503.065 457.805 509.046 455.776 515.087 453.849C516.596 453.367 518.11 452.892 519.628 452.423C518.468 458.292 517.353 464.032 516.287 469.627C512.185 491.159 508.77 510.65 506.217 526.979C505.853 529.311 505.505 531.579 505.176 533.779C504.929 535.435 504.69 537.073 504.458 538.688C502.329 553.481 500.88 566.399 500.88 574.776C500.88 601.382 511.758 624.479 528.262 643.102C528.774 643.678 529.288 644.253 529.81 644.821C530.214 645.261 530.622 645.698 531.032 646.133C531.661 646.799 532.298 647.457 532.941 648.111C539.009 654.283 545.693 659.908 552.78 664.941C554.739 666.333 556.73 667.679 558.746 668.979C559.464 669.443 560.188 669.9 560.917 670.354C590.164 688.604 627.505 699.703 667.644 701.647C669.421 701.734 671.203 701.8 672.99 701.85C673.701 701.87 674.412 701.886 675.125 701.9C676.156 701.921 677.189 701.938 678.223 701.946L680.376 701.955C683.966 701.955 687.538 701.882 691.09 701.737C705.295 701.159 719.163 699.436 732.46 696.655C735.784 695.96 739.072 695.199 742.321 694.373C744.92 693.712 747.494 693.01 750.042 692.267C750.678 692.081 751.314 691.893 751.947 691.702C753.214 691.32 754.474 690.928 755.727 690.526C758.233 689.723 760.709 688.879 763.156 687.996C765.603 687.113 768.02 686.19 770.404 685.229C773.981 683.786 777.485 682.257 780.911 680.643C783.765 679.297 786.565 677.893 789.306 676.432C789.855 676.139 790.401 675.845 790.945 675.548C793.119 674.36 795.256 673.136 797.353 671.876C798.402 671.246 799.441 670.606 800.469 669.958C800.984 669.634 801.496 669.308 802.005 668.979C803.517 668.004 805.014 667.003 806.495 665.977C807.482 665.292 808.461 664.596 809.433 663.889C812.835 661.414 816.14 658.802 819.322 656.058C821.141 654.489 822.92 652.877 824.654 651.223C826.822 649.155 828.92 647.02 830.939 644.821C832.151 643.502 833.335 642.159 834.488 640.793C835.257 639.882 836.013 638.962 836.755 638.031C838.979 635.239 841.077 632.356 843.033 629.385C844.663 626.909 846.195 624.371 847.62 621.774C848.902 619.438 850.098 617.053 851.199 614.621C851.444 614.081 851.683 613.538 851.919 612.993C852.036 612.721 852.153 612.448 852.268 612.174C852.499 611.626 852.725 611.076 852.946 610.524C853.057 610.249 853.166 609.972 853.274 609.695C853.599 608.864 853.912 608.027 854.215 607.186C854.517 606.344 854.809 605.497 855.089 604.646C855.462 603.51 855.815 602.366 856.147 601.213C856.479 600.06 856.791 598.897 857.081 597.727C857.226 597.141 857.365 596.554 857.5 595.964C857.567 595.669 857.633 595.373 857.697 595.077C858.019 593.597 858.307 592.104 858.559 590.598C858.66 589.995 858.756 589.39 858.845 588.783C858.935 588.176 859.019 587.567 859.097 586.956C859.136 586.651 859.174 586.345 859.211 586.038C859.319 585.118 859.415 584.194 859.497 583.265C859.552 582.645 859.601 582.023 859.644 581.399C859.794 579.217 859.871 577.009 859.871 574.776C859.871 574.216 859.864 573.636 859.851 573.036C859.847 572.85 859.842 572.663 859.837 572.474C859.825 572.027 859.809 571.571 859.791 571.104C859.462 562.843 858.131 551.465 856.293 538.688C856.06 537.073 855.822 535.435 855.574 533.779C855.08 530.479 854.546 527.026 853.972 523.432C853.781 522.233 853.586 521.019 853.386 519.79C851.989 511.185 850.382 501.83 848.588 491.864C847.819 487.593 847.015 483.211 846.179 478.727C845.622 475.737 845.051 472.703 844.465 469.627C844.188 468.173 843.907 466.709 843.624 465.235C843.34 463.762 843.052 462.279 842.762 460.786C842.182 457.801 841.591 454.779 840.986 451.723ZM679.307 1075.97C678.407 1075.97 677.253 1076.41 675.883 1077.25C675.695 1077.36 675.501 1077.48 675.304 1077.61C675.142 1077.72 674.977 1077.83 674.809 1077.95C674.205 1078.37 673.568 1078.86 672.898 1079.4C651.781 1096.63 599.176 1174.37 599.175 1213.26L599.181 1214.28C599.184 1214.45 599.188 1214.62 599.191 1214.79C599.202 1215.32 599.217 1215.83 599.238 1216.33C599.255 1216.72 599.275 1217.11 599.299 1217.49C599.46 1220.16 599.779 1222.54 600.251 1224.66C600.375 1225.22 600.512 1225.76 600.657 1226.28C600.83 1226.9 601.017 1227.5 601.218 1228.08C607.161 1244.97 625.564 1240.96 649.752 1237.49C651.069 1237.3 652.403 1237.11 653.754 1236.93C653.862 1236.91 653.97 1236.9 654.079 1236.88C655.181 1236.74 656.294 1236.59 657.418 1236.45C657.658 1236.42 657.9 1236.39 658.141 1236.36C659.186 1236.24 660.239 1236.12 661.3 1236C662.396 1235.88 663.5 1235.77 664.612 1235.67C664.796 1235.65 664.98 1235.63 665.165 1235.62C665.452 1235.59 665.74 1235.57 666.028 1235.54C667.071 1235.45 668.12 1235.37 669.176 1235.3C669.544 1235.27 669.912 1235.25 670.281 1235.23C670.559 1235.21 670.837 1235.19 671.116 1235.18C671.551 1235.15 671.988 1235.13 672.425 1235.11C672.675 1235.1 672.924 1235.08 673.174 1235.07C673.499 1235.06 673.826 1235.05 674.153 1235.04C674.501 1235.02 674.849 1235.01 675.198 1235C675.468 1234.99 675.739 1234.99 676.01 1234.98C677.104 1234.95 678.203 1234.94 679.307 1234.94L680.342 1234.94C680.844 1234.95 681.344 1234.95 681.843 1234.96C682.227 1234.97 682.61 1234.98 682.993 1234.99C683.273 1235 683.552 1235.01 683.832 1235.01C684.241 1235.03 684.65 1235.04 685.057 1235.06C685.313 1235.07 685.568 1235.08 685.823 1235.09C686.247 1235.11 686.67 1235.13 687.092 1235.16C687.347 1235.17 687.602 1235.18 687.856 1235.2C688.258 1235.22 688.659 1235.25 689.059 1235.27C689.339 1235.29 689.619 1235.31 689.898 1235.33C690.239 1235.36 690.58 1235.38 690.92 1235.41C691.265 1235.43 691.61 1235.46 691.954 1235.49C692.266 1235.51 692.578 1235.54 692.889 1235.57C693.229 1235.6 693.567 1235.63 693.905 1235.66C694.234 1235.69 694.563 1235.72 694.89 1235.75C695.197 1235.78 695.503 1235.81 695.808 1235.84C696.133 1235.88 696.457 1235.91 696.781 1235.94C697.132 1235.98 697.482 1236.02 697.832 1236.06C698.091 1236.09 698.35 1236.12 698.608 1236.15C698.979 1236.19 699.349 1236.23 699.718 1236.27C700.006 1236.31 700.293 1236.34 700.58 1236.38C700.914 1236.42 701.247 1236.46 701.579 1236.5C701.984 1236.55 702.389 1236.6 702.792 1236.66C702.952 1236.68 703.113 1236.7 703.273 1236.72C703.689 1236.77 704.104 1236.83 704.517 1236.88C704.77 1236.92 705.022 1236.95 705.274 1236.98C705.7 1237.04 706.125 1237.1 706.548 1237.16C706.68 1237.18 706.813 1237.2 706.945 1237.21C707.755 1237.33 708.559 1237.44 709.357 1237.56C709.852 1237.63 710.345 1237.7 710.835 1237.77C711.839 1237.92 712.832 1238.07 713.814 1238.21C715.81 1238.5 717.76 1238.79 719.661 1239.06C723.409 1239.58 726.962 1240.03 730.291 1240.3C731.115 1240.36 731.925 1240.42 732.721 1240.46C732.886 1240.47 733.05 1240.48 733.214 1240.49C733.719 1240.51 734.219 1240.53 734.713 1240.54C735.407 1240.56 736.089 1240.56 736.758 1240.56C737.16 1240.55 737.558 1240.55 737.951 1240.53C739.338 1240.49 740.669 1240.38 741.941 1240.2C742.27 1240.16 742.595 1240.11 742.916 1240.06C751.148 1238.65 756.727 1234.05 758.674 1223.1C758.743 1222.71 758.806 1222.31 758.866 1221.9C759.002 1220.98 759.117 1220.01 759.205 1219.01C759.242 1218.58 759.273 1218.15 759.301 1217.71C759.321 1217.41 759.338 1217.1 759.353 1216.79C759.375 1216.34 759.395 1215.88 759.408 1215.41C759.419 1215.04 759.427 1214.66 759.432 1214.28L759.439 1213.26C759.439 1211.89 759.373 1210.47 759.246 1209C759.15 1207.91 759.02 1206.78 758.857 1205.64C758.803 1205.25 758.745 1204.87 758.683 1204.48C758.498 1203.32 758.28 1202.14 758.031 1200.94C757.865 1200.13 757.685 1199.32 757.492 1198.5C757.299 1197.68 757.091 1196.85 756.872 1196.02C756.762 1195.6 756.649 1195.18 756.533 1194.76C756.301 1193.91 756.056 1193.06 755.799 1192.2C754.641 1188.33 753.237 1184.32 751.628 1180.22C751.27 1179.3 750.902 1178.38 750.524 1177.46C749.958 1176.08 749.371 1174.69 748.762 1173.29C747.749 1170.96 746.678 1168.6 745.559 1166.24C745.112 1165.29 744.657 1164.34 744.194 1163.39C743.731 1162.44 743.261 1161.49 742.784 1160.54C742.068 1159.11 741.338 1157.68 740.592 1156.25C740.096 1155.3 739.593 1154.34 739.085 1153.39C737.05 1149.57 734.924 1145.77 732.735 1142C729.999 1137.3 727.165 1132.66 724.291 1128.15C723.141 1126.35 721.985 1124.57 720.826 1122.82C717.929 1118.43 715.015 1114.2 712.142 1110.21C708.695 1105.41 705.306 1100.94 702.075 1096.93C699.113 1093.24 696.285 1089.94 693.666 1087.1C692.713 1086.06 691.789 1085.09 690.896 1084.19C690.003 1083.28 689.141 1082.44 688.314 1081.68C688.108 1081.48 687.903 1081.3 687.701 1081.11C686.285 1079.83 684.98 1078.77 683.805 1077.95C683.638 1077.83 683.473 1077.72 683.31 1077.61C682.66 1077.18 682.053 1076.84 681.494 1076.57C680.655 1076.18 679.922 1075.97 679.307 1075.97ZM257.279 936.421L257.283 937.664C257.312 942.208 257.498 946.715 257.837 951.179C257.868 951.593 257.901 952.007 257.935 952.42C257.981 952.981 258.031 953.542 258.082 954.103C258.177 955.142 258.279 956.18 258.39 957.215C262.408 994.586 277.131 1028.75 299.428 1056.58C299.684 1056.9 299.942 1057.22 300.2 1057.53C301.835 1059.55 303.509 1061.53 305.222 1063.47C305.433 1063.71 305.643 1063.95 305.855 1064.19C306.305 1064.69 306.756 1065.2 307.211 1065.7C307.988 1066.55 308.775 1067.4 309.567 1068.24C312.774 1071.65 316.104 1074.93 319.549 1078.1C320.343 1078.83 321.14 1079.55 321.945 1080.27C351.873 1106.84 390.153 1124.21 432.349 1127.94C432.988 1127.99 433.628 1128.05 434.269 1128.1C435.451 1128.19 436.635 1128.27 437.823 1128.34C438.232 1128.37 438.641 1128.39 439.05 1128.41C442.097 1128.58 445.162 1128.67 448.244 1128.69L449.487 1128.69C452.853 1128.69 456.199 1128.6 459.523 1128.43C460.782 1128.37 462.037 1128.29 463.289 1128.2C467.481 1127.91 471.637 1127.47 475.751 1126.91C476.334 1126.83 476.916 1126.75 477.497 1126.66C477.652 1126.64 477.807 1126.62 477.963 1126.6C478.61 1126.5 479.257 1126.4 479.903 1126.3C560.889 1113.42 625.021 1049.94 638.901 969.263C639.101 968.101 639.291 966.937 639.469 965.769C639.551 965.238 639.63 964.707 639.707 964.175C640.15 961.107 640.521 958.016 640.818 954.903C640.852 954.543 640.885 954.182 640.918 953.821C641.09 951.905 641.233 949.981 641.348 948.049C641.381 947.497 641.413 946.945 641.441 946.392C641.576 943.754 641.657 941.103 641.684 938.438C641.687 938.18 641.689 937.922 641.691 937.664L641.695 936.421V802.721H513.484V936.421L513.479 937.248C513.417 942.182 512.795 946.982 511.676 951.587C511.655 951.674 511.634 951.76 511.613 951.847C511.507 952.275 511.397 952.703 511.282 953.128C511.26 953.209 511.238 953.289 511.216 953.37C510.609 955.584 509.888 957.749 509.057 959.86C509.033 959.922 509.008 959.983 508.984 960.045C508.917 960.214 508.85 960.383 508.781 960.552C508.752 960.623 508.722 960.694 508.693 960.765C508.624 960.932 508.555 961.099 508.485 961.266C508.465 961.313 508.445 961.359 508.425 961.406C508.246 961.83 508.061 962.252 507.873 962.671C507.851 962.72 507.828 962.769 507.806 962.817C507.291 963.954 506.744 965.073 506.166 966.173C506.111 966.276 506.056 966.379 506.002 966.481C505.948 966.582 505.895 966.682 505.841 966.782C505.787 966.882 505.733 966.982 505.678 967.082C505.594 967.236 505.511 967.389 505.425 967.542C505.389 967.607 505.352 967.671 505.316 967.735C504.847 968.57 504.361 969.393 503.857 970.203C503.814 970.272 503.771 970.34 503.728 970.408C503.631 970.563 503.533 970.718 503.434 970.872C503.404 970.919 503.374 970.967 503.343 971.014C503.095 971.4 502.843 971.783 502.587 972.163C502.545 972.225 502.503 972.286 502.462 972.348C502.375 972.475 502.288 972.602 502.201 972.729C502.156 972.793 502.112 972.858 502.067 972.923C501.66 973.509 501.242 974.088 500.816 974.659C500.778 974.711 500.739 974.762 500.701 974.813C500.593 974.958 500.484 975.102 500.375 975.245C500.31 975.33 500.244 975.414 500.179 975.498C500.096 975.606 500.013 975.715 499.928 975.822C499.869 975.898 499.81 975.973 499.751 976.049C499.638 976.192 499.523 976.334 499.409 976.477C499.369 976.527 499.329 976.577 499.289 976.627C498.864 977.153 498.431 977.672 497.99 978.185C497.918 978.268 497.846 978.351 497.773 978.435C497.68 978.541 497.587 978.648 497.494 978.754C497.412 978.846 497.33 978.938 497.248 979.03C497.139 979.152 497.029 979.274 496.92 979.396C496.895 979.423 496.87 979.451 496.845 979.479C496.712 979.625 496.577 979.771 496.442 979.917C496.374 979.99 496.307 980.063 496.239 980.136C496.152 980.228 496.065 980.321 495.978 980.413C495.898 980.498 495.817 980.582 495.736 980.667C495.605 980.804 495.473 980.942 495.341 981.078C495.301 981.119 495.261 981.159 495.221 981.199C495.09 981.334 494.958 981.468 494.825 981.602C494.778 981.649 494.731 981.695 494.684 981.742C494.543 981.883 494.401 982.023 494.258 982.163C494.222 982.199 494.185 982.234 494.148 982.27C494.001 982.413 493.853 982.557 493.704 982.699C493.674 982.728 493.643 982.757 493.613 982.786C493.489 982.904 493.364 983.021 493.239 983.139C493.148 983.224 493.056 983.31 492.965 983.395C492.845 983.505 492.725 983.615 492.605 983.725C492.541 983.783 492.477 983.841 492.413 983.899C492.305 983.997 492.197 984.095 492.089 984.192C492.013 984.26 491.936 984.328 491.86 984.396C491.723 984.517 491.585 984.637 491.447 984.757C491.393 984.804 491.338 984.851 491.284 984.898C491.159 985.006 491.034 985.113 490.908 985.22C490.832 985.284 490.756 985.349 490.679 985.413C490.567 985.508 490.455 985.603 490.341 985.697C490.268 985.758 490.195 985.819 490.121 985.88C490.004 985.976 489.886 986.072 489.768 986.167C489.657 986.257 489.546 986.347 489.434 986.437C489.358 986.497 489.281 986.558 489.205 986.618C489.093 986.706 488.982 986.794 488.87 986.882C488.76 986.967 488.651 987.053 488.541 987.138C488.456 987.203 488.372 987.269 488.287 987.334C488.165 987.427 488.042 987.52 487.919 987.612C487.842 987.67 487.765 987.728 487.688 987.785C487.548 987.89 487.407 987.994 487.265 988.098C487.2 988.146 487.134 988.194 487.068 988.242C486.961 988.32 486.853 988.397 486.745 988.475C486.621 988.563 486.497 988.652 486.373 988.74C486.292 988.798 486.21 988.854 486.129 988.911C486.016 988.99 485.904 989.069 485.792 989.146C485.693 989.215 485.593 989.282 485.494 989.35C485.369 989.435 485.244 989.52 485.118 989.604C485.05 989.65 484.983 989.695 484.916 989.74C484.79 989.824 484.663 989.907 484.537 989.99C484.411 990.073 484.285 990.155 484.158 990.237C484.071 990.293 483.985 990.349 483.898 990.404C483.804 990.465 483.709 990.525 483.614 990.585C483.466 990.678 483.317 990.771 483.169 990.863C483.075 990.922 482.981 990.979 482.886 991.037C482.792 991.095 482.698 991.153 482.603 991.21C482.433 991.313 482.262 991.416 482.091 991.518C482.048 991.543 482.006 991.568 481.964 991.593C481.81 991.683 481.657 991.773 481.503 991.862C481.42 991.91 481.338 991.958 481.256 992.005C480.882 992.219 480.506 992.43 480.128 992.637C480.066 992.67 480.004 992.704 479.942 992.737C479.548 992.951 479.152 993.161 478.753 993.366C478.69 993.398 478.628 993.43 478.565 993.462C478.436 993.528 478.306 993.594 478.176 993.659C478.058 993.718 477.94 993.777 477.822 993.836C477.725 993.884 477.627 993.932 477.529 993.979C477.385 994.05 477.24 994.121 477.095 994.19C477.025 994.224 476.955 994.257 476.884 994.29C476.727 994.365 476.571 994.439 476.413 994.513C476.33 994.551 476.246 994.589 476.163 994.627C476.019 994.693 475.876 994.758 475.732 994.823C475.606 994.88 475.48 994.935 475.354 994.991C475.247 995.039 475.14 995.087 475.032 995.134C474.881 995.2 474.73 995.265 474.579 995.329C474.502 995.362 474.425 995.394 474.348 995.427C474.194 995.492 474.04 995.556 473.885 995.62C473.791 995.659 473.696 995.699 473.601 995.737C473.48 995.787 473.357 995.835 473.235 995.884C473.103 995.936 472.972 995.989 472.84 996.041C472.762 996.071 472.685 996.101 472.607 996.131C472.442 996.195 472.277 996.259 472.111 996.321C472.008 996.36 471.905 996.398 471.802 996.437C471.677 996.483 471.552 996.53 471.426 996.576C471.269 996.634 471.112 996.69 470.954 996.746C470.866 996.777 470.779 996.809 470.691 996.84C470.575 996.881 470.459 996.92 470.342 996.96C470.2 997.009 470.058 997.058 469.916 997.106C469.829 997.136 469.743 997.165 469.656 997.193C469.496 997.246 469.337 997.299 469.176 997.351C469.096 997.377 469.016 997.401 468.935 997.427C468.753 997.485 468.57 997.543 468.386 997.6C468.365 997.606 468.343 997.613 468.321 997.62C468.108 997.686 467.894 997.75 467.68 997.813C467.525 997.86 467.369 997.904 467.213 997.949C467.133 997.972 467.054 997.995 466.975 998.018C466.767 998.077 466.559 998.135 466.35 998.191C466.309 998.203 466.267 998.214 466.225 998.226C465.494 998.423 464.758 998.608 464.016 998.78C463.985 998.787 463.954 998.795 463.924 998.802C463.805 998.829 463.687 998.855 463.568 998.882C463.175 998.97 462.78 999.057 462.384 999.138C462.184 999.179 461.983 999.218 461.782 999.257C461.709 999.271 461.636 999.286 461.563 999.3C461.37 999.337 461.175 999.372 460.981 999.407C460.921 999.418 460.86 999.43 460.799 999.44C460.398 999.512 459.996 999.58 459.592 999.644C459.208 999.705 458.823 999.763 458.436 999.817C458.254 999.843 458.071 999.866 457.888 999.89C457.792 999.902 457.696 999.916 457.599 999.928C457.182 999.981 456.763 1000.03 456.343 1000.07C456.227 1000.09 456.111 1000.1 455.994 1000.11C455.869 1000.12 455.744 1000.13 455.619 1000.15C455.48 1000.16 455.34 1000.17 455.201 1000.19C455.055 1000.2 454.908 1000.21 454.761 1000.22C454.639 1000.23 454.517 1000.24 454.394 1000.25C454.236 1000.26 454.078 1000.27 453.92 1000.29C453.806 1000.29 453.693 1000.3 453.579 1000.31C453.507 1000.31 453.436 1000.32 453.364 1000.32C453.033 1000.34 452.701 1000.36 452.368 1000.37C452.095 1000.39 451.821 1000.4 451.547 1000.4C450.863 1000.43 450.176 1000.44 449.487 1000.44C448.792 1000.44 448.1 1000.43 447.411 1000.4C447.158 1000.4 446.907 1000.39 446.655 1000.38C446.282 1000.36 445.91 1000.34 445.539 1000.32C445.492 1000.31 445.446 1000.31 445.399 1000.31C445.265 1000.3 445.13 1000.29 444.996 1000.28C444.857 1000.27 444.718 1000.26 444.579 1000.25C444.433 1000.24 444.288 1000.23 444.143 1000.22C444.022 1000.21 443.901 1000.2 443.78 1000.19C443.58 1000.17 443.38 1000.15 443.18 1000.13C443.116 1000.12 443.051 1000.12 442.986 1000.11C442.476 1000.06 441.969 1000 441.463 999.938C441.438 999.935 441.414 999.933 441.389 999.93C441.261 999.913 441.133 999.896 441.005 999.879C440.854 999.859 440.703 999.84 440.552 999.819C440.155 999.764 439.759 999.703 439.364 999.641C438.971 999.578 438.578 999.513 438.187 999.443C438.068 999.422 437.948 999.399 437.829 999.377C437.695 999.352 437.56 999.328 437.426 999.303C437.328 999.284 437.23 999.264 437.132 999.245C436.706 999.162 436.282 999.075 435.86 998.983C435.743 998.958 435.626 998.931 435.508 998.905C435.362 998.873 435.216 998.84 435.07 998.807C434.681 998.717 434.293 998.623 433.906 998.526C433.776 998.494 433.645 998.461 433.515 998.428C433.47 998.416 433.424 998.404 433.379 998.393C433.168 998.338 432.958 998.282 432.748 998.226C432.699 998.212 432.65 998.199 432.601 998.186C432.407 998.133 432.213 998.079 432.02 998.024C431.892 997.988 431.764 997.951 431.636 997.914C431.52 997.88 431.404 997.847 431.289 997.812C431.157 997.773 431.025 997.733 430.893 997.693C430.771 997.656 430.648 997.62 430.526 997.582C430.351 997.528 430.176 997.472 430.002 997.416C429.943 997.397 429.884 997.379 429.826 997.36C429.651 997.304 429.477 997.246 429.303 997.188C429.223 997.162 429.142 997.135 429.061 997.107C428.898 997.052 428.735 996.997 428.572 996.94C428.486 996.911 428.399 996.881 428.313 996.851C428.175 996.802 428.038 996.752 427.9 996.703C427.792 996.665 427.684 996.627 427.577 996.588C427.417 996.529 427.257 996.47 427.097 996.41C427.02 996.381 426.944 996.352 426.867 996.323C426.699 996.26 426.533 996.196 426.366 996.131C426.288 996.101 426.211 996.071 426.133 996.041C426.001 995.989 425.87 995.936 425.738 995.884C425.616 995.835 425.493 995.787 425.372 995.737C425.277 995.699 425.182 995.659 425.088 995.62C424.933 995.556 424.779 995.492 424.625 995.427C424.548 995.394 424.472 995.362 424.395 995.329C424.244 995.264 424.092 995.2 423.941 995.134C423.833 995.087 423.726 995.039 423.619 994.991C423.493 994.935 423.367 994.88 423.241 994.823C422.629 994.548 422.022 994.262 421.421 993.968C421.331 993.924 421.241 993.88 421.151 993.836C421.027 993.774 420.903 993.713 420.779 993.65C420.671 993.596 420.563 993.542 420.456 993.487C420.363 993.44 420.27 993.392 420.177 993.344C420.024 993.265 419.872 993.186 419.719 993.105C419.652 993.07 419.585 993.034 419.517 992.998C419.37 992.92 419.224 992.842 419.078 992.763C418.98 992.71 418.882 992.656 418.785 992.603C418.649 992.528 418.514 992.453 418.379 992.378C418.301 992.335 418.224 992.291 418.147 992.248C418.006 992.168 417.864 992.089 417.723 992.009C417.63 991.955 417.537 991.901 417.444 991.847C417.316 991.772 417.187 991.697 417.059 991.622C416.973 991.571 416.887 991.52 416.8 991.469C416.651 991.38 416.501 991.29 416.352 991.199C416.282 991.156 416.211 991.113 416.14 991.07C416.006 990.988 415.871 990.905 415.737 990.821C415.631 990.755 415.525 990.689 415.419 990.622C415.322 990.561 415.225 990.5 415.129 990.438C415.008 990.361 414.887 990.284 414.767 990.206C414.662 990.138 414.557 990.07 414.452 990.001C414.32 989.915 414.189 989.827 414.058 989.74C413.996 989.699 413.933 989.657 413.871 989.615C413.727 989.519 413.583 989.421 413.44 989.323C413.375 989.279 413.31 989.235 413.246 989.19C413.091 989.084 412.937 988.976 412.783 988.868C412.73 988.831 412.677 988.794 412.624 988.757C412.283 988.516 411.944 988.272 411.608 988.024C411.503 987.947 411.398 987.87 411.294 987.792C411.214 987.732 411.134 987.672 411.054 987.612C410.931 987.52 410.808 987.427 410.686 987.334C410.601 987.269 410.517 987.203 410.432 987.138C410.322 987.053 410.213 986.967 410.103 986.882C409.991 986.794 409.88 986.706 409.768 986.618C409.692 986.558 409.615 986.497 409.539 986.437C409.419 986.34 409.299 986.244 409.179 986.146C409.094 986.077 409.009 986.007 408.924 985.938C408.825 985.857 408.727 985.776 408.63 985.695C408.52 985.604 408.411 985.513 408.301 985.421C408.21 985.344 408.119 985.266 408.028 985.188C407.919 985.096 407.811 985.003 407.703 984.91C407.639 984.855 407.576 984.8 407.512 984.745C407.396 984.644 407.28 984.543 407.165 984.441C407.04 984.332 406.917 984.221 406.794 984.11C406.748 984.069 406.702 984.029 406.656 983.987C406.531 983.874 406.406 983.761 406.282 983.647C406.211 983.583 406.141 983.517 406.07 983.452C405.929 983.322 405.788 983.19 405.648 983.059C405.613 983.026 405.578 982.993 405.544 982.96C405.427 982.849 405.31 982.738 405.194 982.627C405.097 982.534 405 982.441 404.903 982.347C404.816 982.262 404.728 982.176 404.641 982.091C404.557 982.008 404.473 981.925 404.389 981.842C404.292 981.745 404.196 981.649 404.099 981.552C403.985 981.436 403.87 981.32 403.757 981.204C403.715 981.162 403.674 981.12 403.633 981.078C403.501 980.942 403.369 980.805 403.237 980.667C403.156 980.583 403.076 980.498 402.996 980.413C402.909 980.321 402.822 980.228 402.735 980.136C402.644 980.038 402.553 979.941 402.463 979.843C402.396 979.77 402.329 979.698 402.262 979.625C402.17 979.524 402.077 979.422 401.985 979.32C401.905 979.232 401.825 979.142 401.746 979.053C401.632 978.925 401.517 978.797 401.404 978.668C401.352 978.609 401.301 978.55 401.25 978.491C401.148 978.375 401.047 978.258 400.946 978.141C400.862 978.043 400.778 977.944 400.694 977.846C400.643 977.786 400.593 977.727 400.543 977.667C400.275 977.35 400.011 977.03 399.75 976.707C399.663 976.599 399.575 976.492 399.489 976.384C399.436 976.317 399.383 976.251 399.33 976.185C399.219 976.045 399.108 975.904 398.999 975.764C398.951 975.702 398.903 975.64 398.855 975.578C398.747 975.439 398.64 975.299 398.534 975.159C398.492 975.104 398.45 975.049 398.409 974.994C398.299 974.848 398.189 974.702 398.08 974.556C398.015 974.469 397.951 974.381 397.886 974.294C397.817 974.199 397.747 974.104 397.677 974.009C397.417 973.65 397.16 973.287 396.907 972.923C396.857 972.851 396.807 972.779 396.758 972.707C396.675 972.588 396.594 972.468 396.512 972.349C396.452 972.26 396.392 972.173 396.333 972.084C396.265 971.984 396.198 971.883 396.132 971.782C396.051 971.661 395.971 971.54 395.891 971.418C395.824 971.315 395.757 971.211 395.69 971.107C395.623 971.003 395.556 970.899 395.489 970.795C395.412 970.674 395.335 970.552 395.258 970.43C395.209 970.351 395.159 970.272 395.11 970.193C395.033 970.07 394.957 969.947 394.882 969.823C394.813 969.712 394.745 969.6 394.677 969.488C394.585 969.336 394.495 969.183 394.404 969.03C394.364 968.963 394.324 968.896 394.285 968.829C394.219 968.717 394.155 968.605 394.09 968.493C394.031 968.393 393.973 968.292 393.915 968.191C393.829 968.042 393.744 967.892 393.66 967.741C393.623 967.675 393.585 967.609 393.548 967.542C393.462 967.389 393.379 967.235 393.296 967.082C393.241 966.982 393.187 966.882 393.133 966.782C393.094 966.711 393.055 966.64 393.017 966.568C392.81 966.181 392.607 965.792 392.408 965.4C392.223 965.036 392.041 964.67 391.863 964.302C391.825 964.223 391.786 964.145 391.749 964.066C391.66 963.881 391.572 963.695 391.485 963.509C391.468 963.471 391.45 963.434 391.432 963.396C391.376 963.276 391.322 963.155 391.266 963.034C391.18 962.845 391.093 962.655 391.008 962.465C390.95 962.334 390.892 962.203 390.835 962.071C390.826 962.051 390.816 962.03 390.807 962.01C390.741 961.858 390.676 961.706 390.611 961.554C390.558 961.429 390.505 961.303 390.452 961.178C390.414 961.088 390.378 960.999 390.341 960.909C390.196 960.561 390.054 960.212 389.916 959.86C389.661 959.214 389.418 958.563 389.184 957.906C389.159 957.836 389.133 957.765 389.108 957.694L389.055 957.544C389.008 957.409 388.963 957.274 388.917 957.139C388.886 957.048 388.854 956.957 388.823 956.865C388.782 956.745 388.744 956.624 388.704 956.504C388.657 956.362 388.61 956.221 388.564 956.079C388.504 955.894 388.446 955.708 388.387 955.521C388.369 955.462 388.35 955.403 388.332 955.344C388.293 955.217 388.255 955.091 388.216 954.964C388.159 954.774 388.102 954.583 388.047 954.393C388.044 954.382 388.041 954.372 388.038 954.361C387.99 954.198 387.943 954.034 387.896 953.87C387.858 953.736 387.822 953.602 387.785 953.468C387.754 953.355 387.723 953.241 387.692 953.128C387.63 952.897 387.568 952.666 387.508 952.434C387.499 952.396 387.489 952.357 387.479 952.319C387.439 952.162 387.4 952.004 387.361 951.847C387.216 951.26 387.078 950.67 386.949 950.076C386.896 949.831 386.844 949.585 386.794 949.339C386.784 949.293 386.775 949.248 386.765 949.202C386.757 949.159 386.749 949.116 386.74 949.073C386.547 948.11 386.375 947.139 386.225 946.16C386.15 945.669 386.082 945.177 386.018 944.683C385.976 944.355 385.935 944.026 385.898 943.696C385.848 943.249 385.803 942.8 385.761 942.351C385.731 942.024 385.703 941.697 385.678 941.369C385.601 940.35 385.547 939.325 385.517 938.293C385.499 937.671 385.49 937.047 385.49 936.421V732.896H257.279V936.421Z" fill="#D9D9D9"/>
<path d="M793.43 552.061C795.087 564.138 795.765 571.637 795.765 574.776C795.765 586.481 788.37 601.471 767.262 615.088C746.486 628.491 715.855 637.828 680.376 637.828C676.207 637.828 672.105 637.699 668.079 637.45C664.052 637.201 660.101 636.831 656.232 636.35C653.653 636.029 651.112 635.658 648.609 635.24C645.481 634.718 642.414 634.123 639.414 633.458C632.813 631.996 626.533 630.201 620.623 628.126C622.821 627.922 625.008 627.692 627.183 627.438C634.254 626.61 641.202 625.52 648.025 624.19C648.55 624.088 649.074 623.985 649.597 623.88C652.738 623.249 655.852 622.568 658.938 621.838C659.452 621.716 659.966 621.594 660.478 621.47C661.504 621.221 662.527 620.967 663.547 620.708C664.056 620.578 664.566 620.448 665.074 620.315C666.091 620.051 667.104 619.781 668.115 619.506C668.62 619.369 669.125 619.231 669.629 619.091C670.636 618.811 671.641 618.525 672.642 618.235C674.145 617.8 675.64 617.355 677.129 616.897C678.121 616.593 679.11 616.283 680.096 615.969C681.082 615.654 682.066 615.336 683.046 615.012C685.495 614.202 687.926 613.362 690.337 612.495C691.301 612.148 692.262 611.797 693.22 611.441C695.137 610.73 697.041 610 698.932 609.254C702.241 607.948 705.512 606.59 708.743 605.184C710.59 604.38 712.424 603.56 714.245 602.726C719.707 600.222 725.053 597.581 730.281 594.823C733.766 592.984 737.199 591.093 740.578 589.154C748.181 584.793 755.514 580.193 762.568 575.415C764.136 574.353 765.689 573.283 767.229 572.204C771.849 568.969 776.343 565.66 780.711 562.297C782.167 561.176 783.608 560.049 785.036 558.916C786.464 557.783 787.877 556.645 789.276 555.502C790.675 554.359 792.06 553.212 793.43 552.061Z" fill="#D9D9D9"/>
<path d="M1224.36 235.976C1243.61 282.575 1257.89 346.307 1249.38 412.23C1241.45 473.648 1213.64 538.292 1148.75 594.48C1141.72 584.604 1134.32 574.966 1126.55 565.581C1123.78 562.229 1120.96 558.91 1118.1 555.624C1111.8 548.394 1105.29 541.325 1098.57 534.424C1095.51 531.287 1092.41 528.185 1089.27 525.118C1087.39 523.278 1085.49 521.451 1083.57 519.637C1081.66 517.823 1079.73 516.022 1077.78 514.233C1074.54 511.253 1071.26 508.309 1067.94 505.402C1066.61 504.24 1065.27 503.083 1063.93 501.933C1063.26 501.357 1062.59 500.783 1061.92 500.211C1060.57 499.066 1059.21 497.928 1057.85 496.795C1056.49 495.662 1055.12 494.536 1053.75 493.415C1050.32 490.614 1046.84 487.851 1043.33 485.127C1041.93 484.037 1040.52 482.953 1039.1 481.876C1037.68 480.799 1036.26 479.729 1034.83 478.664C1033.4 477.6 1031.97 476.541 1030.53 475.489C1030.62 474.96 1030.71 474.436 1030.79 473.918C1030.87 473.4 1030.95 472.888 1031.02 472.383C1031.05 472.11 1031.09 471.833 1031.13 471.553C1031.29 470.429 1031.49 469.241 1031.73 467.99C1031.79 467.677 1031.85 467.361 1031.91 467.04C1032.04 466.399 1032.18 465.742 1032.33 465.07C1032.48 464.398 1032.64 463.71 1032.81 463.008C1033.15 461.603 1033.53 460.138 1033.95 458.614C1034.06 458.233 1034.17 457.849 1034.28 457.461C1034.73 455.908 1035.22 454.298 1035.75 452.632C1035.89 452.215 1036.03 451.795 1036.17 451.372C1036.45 450.525 1036.74 449.664 1037.04 448.79C1037.65 447.042 1038.31 445.239 1039.01 443.385C1039.72 441.53 1040.47 439.623 1041.28 437.666C1042.89 433.752 1044.71 429.639 1046.76 425.341C1047.78 423.192 1048.86 420.997 1049.99 418.758C1052.83 413.161 1056.04 407.289 1059.63 401.175C1060.35 399.952 1061.08 398.72 1061.83 397.478C1062.96 395.615 1064.12 393.731 1065.32 391.826C1066.12 390.556 1066.93 389.277 1067.77 387.989C1068.18 387.346 1068.6 386.7 1069.03 386.052C1069.88 384.755 1070.74 383.45 1071.62 382.137C1072.06 381.48 1072.51 380.821 1072.96 380.16C1075.21 376.856 1077.56 373.499 1080.03 370.095C1081.01 368.733 1082.02 367.363 1083.04 365.986C1085.08 363.233 1087.2 360.45 1089.39 357.639C1090.49 356.233 1091.6 354.821 1092.73 353.402C1095 350.564 1097.34 347.7 1099.75 344.812C1103.38 340.478 1107.17 336.09 1111.15 331.653C1112.48 330.175 1113.82 328.69 1115.19 327.201C1119.29 322.733 1123.57 318.219 1128.03 313.666C1131.01 310.631 1134.08 307.578 1137.23 304.511C1139.59 302.21 1142 299.9 1144.46 297.583C1149.38 292.949 1154.49 288.284 1159.81 283.595C1160.7 282.813 1161.59 282.031 1162.49 281.248C1165.18 278.899 1167.93 276.545 1170.72 274.186C1171.66 273.399 1172.59 272.613 1173.54 271.825C1178.26 267.888 1183.12 263.938 1188.14 259.979C1195.16 254.437 1202.47 248.879 1210.09 243.313C1212.26 241.724 1214.46 240.133 1216.69 238.542C1218.91 236.951 1221.16 235.361 1223.44 233.77L1224.36 235.976Z" fill="#D9D9D9"/>
<path d="M142.565 233.77C288.225 335.592 330.415 437.481 334.99 472.383C335.037 472.743 335.09 473.106 335.144 473.473C288.435 507.126 247.907 547.437 215.34 592.809L213.857 591.499C212.992 590.73 212.134 589.96 211.282 589.188C210.212 588.219 209.153 587.249 208.104 586.275C207.286 585.515 206.475 584.753 205.67 583.99C205.536 583.864 205.403 583.738 205.27 583.612C205.014 583.369 204.759 583.125 204.505 582.881C204.313 582.698 204.121 582.516 203.93 582.333C203.55 581.968 203.172 581.602 202.795 581.236C202.727 581.171 202.659 581.105 202.591 581.039C202.298 580.754 202.005 580.468 201.714 580.183C201.108 579.59 200.504 578.997 199.906 578.402C199.648 578.146 199.392 577.889 199.135 577.633C198.47 576.967 197.808 576.301 197.152 575.634C196.994 575.473 196.837 575.311 196.679 575.15C196.43 574.896 196.181 574.642 195.933 574.388C195.654 574.101 195.376 573.813 195.098 573.525C194.955 573.377 194.812 573.229 194.669 573.08C194.359 572.758 194.051 572.436 193.744 572.114C193.603 571.967 193.463 571.82 193.323 571.673C193.1 571.438 192.879 571.203 192.657 570.969C192.461 570.761 192.265 570.554 192.07 570.347C191.821 570.082 191.574 569.817 191.327 569.553C191.136 569.348 190.945 569.143 190.755 568.938C190.548 568.716 190.343 568.494 190.137 568.271C189.929 568.046 189.721 567.821 189.514 567.596C189.32 567.384 189.127 567.172 188.934 566.961C188.736 566.743 188.537 566.526 188.34 566.309C188.12 566.066 187.9 565.824 187.681 565.581C187.482 565.36 187.284 565.14 187.086 564.919C186.891 564.702 186.697 564.484 186.503 564.267C186.274 564.011 186.047 563.755 185.82 563.499C185.595 563.245 185.371 562.991 185.147 562.737C185.036 562.611 184.925 562.485 184.814 562.358C184.532 562.037 184.251 561.715 183.97 561.393C183.839 561.241 183.707 561.09 183.576 560.938C183.357 560.686 183.14 560.434 182.923 560.182C182.74 559.97 182.558 559.759 182.377 559.547C182.137 559.268 181.9 558.988 181.662 558.708C181.54 558.564 181.417 558.421 181.296 558.277C181.037 557.972 180.78 557.667 180.523 557.361C180.378 557.188 180.232 557.015 180.087 556.842C179.869 556.582 179.653 556.322 179.437 556.062C179.276 555.869 179.115 555.675 178.955 555.481C178.754 555.239 178.555 554.996 178.355 554.753C178.117 554.463 177.879 554.172 177.642 553.882C177.517 553.728 177.392 553.575 177.267 553.421C177.066 553.174 176.866 552.926 176.667 552.679C176.508 552.481 176.349 552.284 176.19 552.087C175.96 551.8 175.73 551.512 175.501 551.225C175.34 551.023 175.18 550.821 175.02 550.619C174.841 550.394 174.663 550.168 174.485 549.942C174.266 549.664 174.047 549.385 173.829 549.106C173.679 548.914 173.529 548.722 173.38 548.53C173.199 548.298 173.018 548.066 172.839 547.833C172.651 547.591 172.464 547.348 172.278 547.105C172.134 546.918 171.99 546.73 171.846 546.542C171.639 546.271 171.433 546 171.227 545.729C171.073 545.527 170.92 545.324 170.767 545.121C170.607 544.908 170.447 544.695 170.287 544.482C170.1 544.233 169.912 543.985 169.726 543.735C169.548 543.496 169.37 543.255 169.192 543.016C169.014 542.776 168.837 542.536 168.66 542.296C168.482 542.055 168.305 541.813 168.129 541.571C167.953 541.331 167.777 541.09 167.602 540.85C167.423 540.602 167.244 540.355 167.065 540.107C166.912 539.896 166.76 539.684 166.608 539.473C166.519 539.348 166.429 539.223 166.34 539.099C166.112 538.78 165.884 538.461 165.658 538.143C165.508 537.932 165.36 537.72 165.211 537.509C165.003 537.214 164.796 536.92 164.59 536.626C164.499 536.497 164.41 536.368 164.32 536.239C164.1 535.923 163.88 535.607 163.661 535.291C163.55 535.131 163.441 534.971 163.331 534.812C163.094 534.467 162.858 534.124 162.623 533.779C162.561 533.689 162.5 533.598 162.438 533.508C162.22 533.187 162.003 532.867 161.787 532.546C161.622 532.301 161.458 532.056 161.294 531.812C161.175 531.634 161.056 531.457 160.938 531.28C160.732 530.971 160.527 530.663 160.323 530.354C160.218 530.195 160.113 530.037 160.008 529.878C159.837 529.617 159.667 529.356 159.497 529.096C158.677 527.841 157.87 526.585 157.076 525.327C157.032 525.258 156.989 525.188 156.945 525.118C156.75 524.808 156.554 524.498 156.36 524.188C155.866 523.397 155.379 522.605 154.895 521.812C154.835 521.714 154.774 521.617 154.715 521.519L154.566 521.274C154.364 520.942 154.164 520.609 153.964 520.276C153.906 520.18 153.848 520.084 153.79 519.987C153.641 519.739 153.493 519.491 153.345 519.243C152.094 517.142 150.876 515.038 149.693 512.93C149.284 512.2 148.879 511.469 148.478 510.738C148.143 510.127 147.81 509.516 147.48 508.904C146.928 507.881 146.383 506.857 145.847 505.832C145.442 505.056 145.042 504.279 144.645 503.503C144.321 502.868 144 502.234 143.681 501.599C143.562 501.36 143.444 501.121 143.325 500.882C142.494 499.211 141.682 497.539 140.891 495.864C140.722 495.507 140.555 495.149 140.388 494.791C139.893 493.729 139.404 492.667 138.924 491.604C138.805 491.338 138.687 491.073 138.568 490.808C138.039 489.625 137.519 488.442 137.009 487.259C136.91 487.028 136.812 486.797 136.714 486.566C136.401 485.836 136.092 485.105 135.788 484.374C135.702 484.167 135.617 483.96 135.531 483.753C135.413 483.469 135.296 483.185 135.179 482.901C135.077 482.652 134.976 482.402 134.875 482.152C134.801 481.972 134.727 481.791 134.654 481.61C134.547 481.345 134.44 481.079 134.334 480.813C134.238 480.575 134.142 480.336 134.048 480.097C133.923 479.783 133.8 479.468 133.676 479.154C133.616 479.001 133.556 478.848 133.496 478.695C133.375 478.387 133.256 478.078 133.136 477.77C133.047 477.537 132.957 477.305 132.868 477.072C132.814 476.931 132.76 476.789 132.706 476.647C132.586 476.334 132.467 476.021 132.349 475.708C132.266 475.487 132.183 475.265 132.1 475.044C132.017 474.821 131.933 474.597 131.85 474.374C131.72 474.022 131.59 473.67 131.461 473.318C131.415 473.194 131.369 473.07 131.324 472.945C131.202 472.612 131.082 472.279 130.962 471.946C130.912 471.809 130.863 471.672 130.814 471.535C130.692 471.194 130.571 470.853 130.45 470.512C130.397 470.363 130.344 470.214 130.292 470.064C130.206 469.821 130.121 469.578 130.036 469.335C129.952 469.094 129.868 468.852 129.785 468.611C129.693 468.345 129.601 468.079 129.509 467.812C129.421 467.555 129.333 467.298 129.246 467.04C129.197 466.896 129.149 466.752 129.1 466.608C128.989 466.28 128.879 465.951 128.769 465.622C128.708 465.438 128.647 465.254 128.587 465.07C128.511 464.841 128.435 464.613 128.36 464.384C128.278 464.134 128.197 463.885 128.116 463.636C128.031 463.374 127.946 463.112 127.862 462.851C127.809 462.686 127.756 462.52 127.704 462.355C127.596 462.018 127.489 461.681 127.382 461.344C127.331 461.181 127.281 461.018 127.23 460.855C127.137 460.559 127.045 460.262 126.953 459.966C126.899 459.791 126.845 459.617 126.792 459.442C126.68 459.08 126.57 458.718 126.461 458.355C126.433 458.263 126.404 458.171 126.377 458.079C126.282 457.765 126.188 457.45 126.094 457.136C126.032 456.926 125.971 456.717 125.909 456.508C125.811 456.175 125.714 455.843 125.617 455.511C125.585 455.402 125.553 455.294 125.521 455.186C125.418 454.828 125.316 454.47 125.214 454.112C125.17 453.959 125.125 453.805 125.082 453.651C124.985 453.312 124.89 452.972 124.796 452.632C124.751 452.473 124.708 452.315 124.664 452.156C124.58 451.855 124.497 451.554 124.415 451.253C124.363 451.064 124.312 450.876 124.26 450.688C124.168 450.346 124.075 450.004 123.984 449.662C123.958 449.565 123.933 449.469 123.907 449.372C123.83 449.081 123.753 448.791 123.676 448.5C123.607 448.236 123.538 447.971 123.469 447.707C123.401 447.443 123.332 447.178 123.264 446.914C123.222 446.749 123.179 446.583 123.137 446.418C123.064 446.128 122.99 445.839 122.918 445.549C122.879 445.394 122.839 445.239 122.8 445.084C122.591 444.243 122.386 443.403 122.185 442.562C122.139 442.37 122.093 442.177 122.048 441.984C121.9 441.361 121.754 440.737 121.611 440.113C121.433 439.339 121.258 438.564 121.087 437.79C121.062 437.677 121.036 437.563 121.011 437.45C120.827 436.613 120.646 435.777 120.47 434.94C120.449 434.84 120.428 434.739 120.407 434.639C120.231 433.8 120.06 432.962 119.892 432.124C119.723 431.276 119.558 430.428 119.396 429.58C119.38 429.497 119.363 429.413 119.347 429.33C119.224 428.678 119.105 428.026 118.986 427.374C118.93 427.065 118.871 426.756 118.815 426.447C118.683 425.712 118.557 424.976 118.431 424.241C118.394 424.023 118.354 423.804 118.317 423.586C117.837 420.746 117.402 417.911 117.008 415.083L116.627 412.23C115.613 404.382 114.922 396.565 114.525 388.805C114.419 386.735 114.334 384.67 114.269 382.608C114.188 380.032 114.139 377.463 114.12 374.901C114.105 372.853 114.109 370.809 114.132 368.771C114.156 366.732 114.199 364.699 114.259 362.672C114.381 358.618 114.575 354.589 114.84 350.587C114.906 349.586 114.977 348.588 115.051 347.591C115.201 345.597 115.367 343.611 115.549 341.632C115.823 338.664 116.134 335.713 116.48 332.781C117.057 327.895 117.73 323.061 118.492 318.287C119.864 309.694 121.522 301.296 123.414 293.137C124.255 289.51 125.142 285.931 126.071 282.402C127.464 277.109 128.951 271.931 130.517 266.88C131.561 263.513 132.641 260.202 133.75 256.952C134.027 256.14 134.306 255.331 134.587 254.526C135.149 252.916 135.718 251.322 136.294 249.743C136.582 248.954 136.871 248.168 137.163 247.387C137.745 245.824 138.335 244.278 138.929 242.748C140.119 239.688 141.333 236.694 142.565 233.77Z" fill="#D9D9D9"/>
<path d="M763.523 394.996C769.931 423.721 775.658 451.365 780.453 476.229C736.999 522.531 670.892 567.033 589.319 565.053C585.833 564.968 582.319 564.799 578.777 564.541C575.943 564.335 573.092 564.071 570.223 563.75C568.789 563.589 567.351 563.415 565.908 563.225C565.98 562.584 566.056 561.919 566.137 561.231C566.625 557.102 567.281 552.119 568.133 546.266C568.276 545.29 568.424 544.291 568.577 543.267C568.83 541.571 569.096 539.828 569.374 538.038C569.652 536.248 569.941 534.413 570.243 532.532C570.846 528.772 571.496 524.833 572.192 520.73C573.236 514.576 574.381 508.053 575.622 501.205C576.035 498.922 576.46 496.604 576.894 494.251C582.012 493.712 587.05 493.038 592.01 492.237C592.631 492.137 593.249 492.035 593.867 491.931C595.102 491.723 596.333 491.507 597.558 491.283C598.171 491.171 598.782 491.058 599.392 490.942C600.613 490.711 601.828 490.471 603.039 490.225C604.855 489.854 606.66 489.467 608.454 489.063C611.444 488.39 614.403 487.67 617.333 486.905C619.676 486.294 622 485.654 624.304 484.986C627.185 484.152 630.035 483.274 632.855 482.354C639.059 480.332 645.117 478.109 651.029 475.704C655.329 473.955 659.552 472.11 663.699 470.176C665.254 469.451 666.798 468.713 668.331 467.963C669.353 467.463 670.371 466.958 671.383 466.447C672.396 465.937 673.404 465.421 674.408 464.899C677.919 463.076 681.372 461.189 684.766 459.244C686.706 458.133 688.628 457.002 690.53 455.854C694.334 453.556 698.062 451.187 701.716 448.752C703.086 447.839 704.445 446.916 705.794 445.985C706.693 445.365 707.587 444.741 708.477 444.112C709.812 443.17 711.136 442.218 712.45 441.259C713.326 440.619 714.197 439.976 715.063 439.329C716.796 438.036 718.51 436.729 720.206 435.408C723.173 433.097 726.084 430.746 728.937 428.359C729.752 427.678 730.563 426.993 731.369 426.306C732.175 425.618 732.975 424.927 733.772 424.234C738.951 419.73 743.934 415.115 748.723 410.417C750.197 408.971 751.652 407.518 753.089 406.058C753.807 405.328 754.521 404.596 755.23 403.863C758.067 400.93 760.832 397.972 763.523 394.996Z" fill="#D9D9D9"/>
<path d="M728.068 254.141C733.7 273.762 739.222 294.334 744.546 315.274C712.293 363.738 661.179 412.713 590.2 427.325C590.553 425.658 590.908 423.984 591.266 422.304C591.983 418.944 592.711 415.561 593.45 412.157C594.189 408.753 594.938 405.328 595.698 401.886C597.217 395.001 598.778 388.046 600.376 381.044C600.775 379.293 601.177 377.539 601.581 375.783C602.389 372.271 603.206 368.749 604.032 365.219C604.445 363.454 604.86 361.687 605.277 359.919C606.529 354.615 607.799 349.297 609.088 343.977C613.237 342.218 617.299 340.391 621.275 338.501C622.07 338.123 622.863 337.743 623.651 337.359C626.016 336.21 628.35 335.038 630.653 333.845C631.421 333.447 632.185 333.048 632.946 332.646C634.468 331.841 635.976 331.027 637.471 330.204C640.461 328.558 643.397 326.877 646.28 325.163C649.883 323.021 653.402 320.827 656.84 318.588C659.589 316.796 662.286 314.975 664.931 313.128C666.254 312.204 667.563 311.274 668.86 310.338C672.102 307.997 675.263 305.616 678.344 303.202C679.577 302.236 680.797 301.265 682.005 300.289C682.608 299.801 683.209 299.311 683.806 298.82C688.585 294.896 693.161 290.894 697.542 286.836C698.089 286.329 698.634 285.821 699.175 285.312C700.258 284.295 701.329 283.273 702.387 282.249C704.504 280.201 706.572 278.141 708.592 276.072C709.603 275.038 710.601 274.002 711.588 272.963C712.081 272.444 712.57 271.923 713.057 271.403C717.929 266.202 722.504 260.957 726.791 255.714C727.219 255.189 727.645 254.665 728.068 254.141Z" fill="#D9D9D9"/>
<path d="M680.376 124.748C685.71 134.05 691.72 146.986 698.177 163.403C699.808 167.548 701.438 171.853 703.075 176.302C690.409 200.224 669.446 228.904 638.126 253.233C637.546 253.683 636.964 254.133 636.378 254.58C634.79 255.79 633.175 256.989 631.535 258.176L633.443 251.517C635.674 243.79 637.922 236.216 640.179 228.83C640.824 226.72 641.47 224.625 642.117 222.546C645.673 211.114 649.252 200.172 652.83 189.86C653.155 188.923 653.481 187.991 653.806 187.063C656.734 178.721 659.66 170.809 662.573 163.403C662.976 162.377 663.378 161.365 663.778 160.366C664.578 158.368 665.372 156.425 666.157 154.536C667.335 151.704 668.496 148.995 669.637 146.41C670.779 143.826 671.902 141.366 673.005 139.031C674.108 136.696 675.191 134.487 676.252 132.403C677.666 129.626 679.042 127.074 680.376 124.748Z" fill="#D9D9D9"/>
<path fill-rule="evenodd" clip-rule="evenodd" d="M680.376 0C709.688 0.000192165 731.171 13.3462 743.256 23.2236L744.396 24.168L745.535 25.1367C757.199 35.189 765.818 46.6236 771.914 55.8545C784.611 75.0814 795.337 98.6775 804.362 121.621C822.808 168.517 840.415 229.1 855.491 288.546C859.917 305.999 864.176 323.566 868.225 340.928C895.309 348.905 921.572 358.573 946.86 369.804C982.159 298.92 1051.3 212.406 1169.39 132.438L1169.4 132.437C1218.35 99.287 1290.71 112.17 1320.39 171.236L1320.55 171.555L1320.71 171.876L1321.41 173.323L1321.56 173.639L1321.71 173.956C1350.66 235.879 1375.33 327.805 1362.54 426.847C1352.12 507.606 1316.94 590.542 1244 661.849C1271.02 724.112 1285.92 792.035 1285.92 863.128C1285.92 893.809 1283.14 923.93 1277.79 953.284C1296.58 987.751 1307.32 1026.4 1307.32 1067.42C1307.32 1198.43 1201.7 1298.43 1071.68 1332.43C1068.05 1416.01 999.401 1483 914.795 1483H437.391C351.994 1483 282.856 1414.76 280.422 1330.09C154.59 1294.08 53.4255 1195.52 53.4255 1067.42C53.4257 1025.23 64.7971 985.557 84.571 950.366C79.7613 923.013 77.1753 895.003 76.986 866.504V866.343L76.9753 863.3V863.128C76.9753 791.218 92.2186 722.553 119.825 659.709C48.3486 588.869 13.7803 506.774 3.46063 426.847C-9.32659 327.805 15.3493 235.879 44.2975 173.956L44.446 173.639L44.5993 173.323L45.4557 171.555L45.6159 171.235C75.2928 112.171 147.651 99.2854 196.611 132.438L200.104 134.814C315.48 213.711 383.469 298.73 418.573 368.681C442.359 358.241 466.999 349.181 492.366 341.606C496.463 324.024 500.775 306.226 505.259 288.546C520.336 229.1 537.943 168.517 556.389 121.621C565.414 98.6776 576.14 75.0814 588.838 55.8545C595.13 46.326 604.111 34.4487 616.355 24.168L617.495 23.2236C629.579 13.3464 651.063 4.85355e-06 680.376 0ZM680.376 50C666.363 50 655.512 56.5777 648.507 62.46L647.841 63.0264C641.005 68.9211 635.306 76.2203 630.56 83.4072L629.638 84.8203C620.137 99.5592 611.219 118.822 602.919 139.924L602.108 141.995C585.094 185.71 568.392 243.005 553.725 300.838L552.44 305.926C546.04 331.384 539.997 357.07 534.456 381.945C483.911 394.418 436.251 413.163 392.575 437.196C373.44 373.497 311.55 271.597 171.89 176.094L168.577 173.839C142.632 156.271 105.371 163.676 90.2936 193.684L89.5925 195.131L88.3786 197.753C62.9558 253.237 41.9325 334.339 53.0495 420.444C63.1799 498.906 99.8966 580.077 181.087 647.892C146.401 713.056 126.975 786.051 126.975 863.128L126.985 866.172C127.194 897.595 130.632 928.331 137.014 958.122L137.086 958.552C137.197 959.561 136.946 960.583 136.38 961.437C115.337 993.099 103.426 1029.16 103.425 1067.42C103.425 1174.23 196.223 1263.88 321.474 1288.61L321.95 1288.71C326.815 1289.89 330.351 1294.21 330.351 1299.26V1325.48L330.362 1326.87L330.387 1328.24C331.836 1385.89 378.453 1432.26 436.019 1432.99L437.392 1433H914.795C973.449 1433 1021.09 1385.61 1021.83 1326.87L1021.84 1325.48V1300.84C1021.84 1295.53 1025.74 1291.04 1030.97 1290.14C1160.4 1267.81 1257.32 1176.58 1257.32 1067.42C1257.32 1030.71 1246.36 996.021 1226.88 965.302L1225.94 963.842C1225.32 962.868 1225.1 961.683 1225.35 960.552C1232.06 930.028 1235.69 898.502 1235.91 866.251L1235.92 863.128C1235.92 786.757 1216.84 714.394 1182.75 649.684C1264.81 582.042 1302.15 500.879 1312.71 422.301L1312.96 420.444C1324.07 334.339 1303.05 253.237 1277.63 197.753L1276.41 195.131L1275.71 193.684C1260.63 163.675 1223.37 156.272 1197.43 173.839L1194.09 176.11C1053.36 272.35 991.599 375.082 972.984 438.672C927.935 413.567 878.589 394.113 826.172 381.395C820.661 356.68 814.658 331.173 808.301 305.891L807.026 300.838C792.359 243.005 775.657 185.71 758.642 141.995L757.832 139.924C749.532 118.822 740.613 99.5593 731.112 84.8203L730.191 83.4072C725.292 75.9885 719.378 68.4497 712.245 62.46C705.239 56.5777 694.388 50.0002 680.376 50Z" fill="#D9D9D9"/>
</svg>
